<svg width="1060" height="451" viewBox="0 0 1060 451" fill="none" xmlns="http://www.w3.org/2000/svg">
<path d="M94.5866 450.006C94.5866 450.006 -88.8515 252.485 55.1883 131.416C259.967 -40.7295 402.267 185.271 486.577 113.46C494.936 106.34 502.774 98.1484 512.119 92.385C697.739 -22.0939 842.451 31.3553 918.238 142.011C937.29 169.829 924.164 207.519 932.648 240.152C949.026 303.146 1095.31 316.042 1015.22 450.234L94.5866 450.006Z" fill="#162C37"/>
<path d="M717.617 139.484L724.257 123.958L724.411 123.592C724.797 122.681 724.834 121.66 724.515 120.723C724.197 119.787 723.545 119 722.683 118.514L710.398 111.606C710.199 111.499 710.01 111.377 709.831 111.24C709.232 110.751 708.79 110.097 708.559 109.359C708.328 108.621 708.318 107.831 708.531 107.088C711.083 98.0814 711.813 88.6563 710.68 79.3639C710.638 78.9872 710.648 78.6066 710.709 78.2327C710.829 77.5388 711.127 76.8877 711.573 76.3425C712.018 75.7974 712.597 75.3766 713.253 75.1209L724.257 70.962C724.955 70.6895 725.565 70.2307 726.02 69.6355C726.475 69.0403 726.758 68.3316 726.838 67.5866C726.879 67.113 726.843 66.6358 726.732 66.1735L722.427 49.4833C722.168 48.4857 721.544 47.6218 720.678 47.063C719.812 46.5042 718.768 46.2913 717.752 46.4667L702.312 49.0989C701.567 49.2236 700.802 49.1339 700.107 48.8402C699.411 48.5466 698.814 48.0611 698.384 47.4405C697.092 45.6284 695.737 43.8675 694.262 42.1578C691.556 39.0061 688.576 36.1013 685.355 33.4777C684.711 32.9598 684.241 32.2571 684.007 31.464C683.773 30.6709 683.788 29.8253 684.049 29.0407L689.012 13.943L689.254 13.1815C689.57 12.2384 689.519 11.211 689.112 10.3035C688.705 9.39601 687.972 8.67481 687.058 8.28319L671.178 1.47018C670.241 1.07503 669.192 1.03755 668.23 1.36486C667.268 1.69218 666.459 2.3615 665.958 3.24574L658.27 16.9193C657.857 17.6574 657.222 18.2466 656.455 18.6034C655.689 18.9602 654.829 19.0665 653.998 18.9072C646.825 17.577 639.488 17.3671 632.25 18.2848C631.354 18.3929 630.447 18.1964 629.675 17.727C628.904 17.2576 628.313 16.5425 627.997 15.6966L623.058 2.65633C622.701 1.70709 622.004 0.924011 621.103 0.458209C620.202 -0.00759331 619.16 -0.123109 618.179 0.133945L601.398 4.43554C600.446 4.68285 599.622 5.27793 599.087 6.10338C598.553 6.92884 598.347 7.92472 598.51 8.89456L601.559 27.0345C601.69 27.7912 601.606 28.5693 601.317 29.2809C601.029 29.9925 600.547 30.6092 599.927 31.0615C598.367 32.1891 596.844 33.3911 595.358 34.6675C592.605 37.0321 590.035 39.6021 587.671 42.3555C587.166 42.9635 586.49 43.4043 585.73 43.62C584.97 43.8356 584.162 43.816 583.413 43.5636L565.275 37.5743C564.316 37.2565 563.272 37.3108 562.352 37.7265C561.431 38.1422 560.7 38.8889 560.304 39.8185L553.488 55.7435C553.146 56.5638 553.083 57.4733 553.308 58.3329C553.533 59.1924 554.033 59.9546 554.732 60.5028C554.883 60.6243 555.044 60.731 555.215 60.8213L570.385 69.3659C571.077 69.7442 571.641 70.3187 572.007 71.017C572.373 71.7153 572.525 72.5062 572.442 73.2904C572.436 73.4325 572.415 73.5735 572.38 73.7114C572.284 74.1219 572.211 74.5375 572.161 74.9561C571.225 79.8885 570.821 84.9071 570.956 89.9257C570.986 90.7491 570.754 91.5608 570.293 92.2442C569.833 92.9276 569.168 93.4475 568.394 93.7294L554.622 98.9499C553.678 99.3103 552.9 100.006 552.438 100.905C551.975 101.803 551.86 102.841 552.115 103.819L553.07 107.535L556.427 120.483C556.675 121.468 557.286 122.322 558.137 122.876C558.988 123.429 560.017 123.64 561.018 123.467L576.22 120.904C577.011 120.771 577.823 120.884 578.547 121.228C579.272 121.572 579.873 122.13 580.269 122.826C584.134 129.517 589.069 135.529 594.879 140.622L593.832 143.789L589.545 156.763C589.283 157.535 589.269 158.37 589.504 159.15C589.74 159.931 590.214 160.618 590.859 161.116C591.132 161.331 591.434 161.506 591.756 161.636L607.717 168.497C608.632 168.875 609.654 168.907 610.591 168.586C611.528 168.265 612.317 167.614 612.809 166.754L618.047 157.4C618.485 156.627 619.166 156.021 619.984 155.675C620.803 155.329 621.712 155.264 622.572 155.489C629.792 157.453 637.279 158.257 644.751 157.873C645.595 157.816 646.435 158.036 647.143 158.498C647.852 158.96 648.391 159.64 648.679 160.435L654.902 176.909C655.244 177.8 655.902 178.534 656.749 178.972C657.597 179.409 658.576 179.519 659.5 179.282L676.435 174.889C677.399 174.65 678.237 174.054 678.78 173.222C679.324 172.39 679.532 171.383 679.363 170.404L676.186 151.528C676.05 150.735 676.156 149.919 676.489 149.186C676.821 148.453 677.366 147.837 678.053 147.417C681.119 145.519 684.029 143.379 686.754 141.018C688.255 139.729 689.689 138.387 691.055 136.991C691.581 136.46 692.243 136.085 692.968 135.907C693.694 135.728 694.454 135.754 695.166 135.98L712.562 141.717C713.531 142.044 714.587 141.996 715.523 141.583C716.459 141.169 717.206 140.42 717.617 139.484ZM672.408 66.6495C680.242 78.1375 681.193 91.1338 676.888 101.11C661.726 136.042 614.694 132.916 604.041 96.9107C601.428 87.6595 602.537 77.3467 609.21 67.3047C624.834 44.0395 657.414 44.7058 672.408 66.6495Z" fill="url(#paint0_linear_436_565)"/>
<path d="M136.334 448.008C136.334 448.008 135.525 441.704 133.651 437.959C131.776 434.214 119.861 436.597 119.861 436.597C119.861 436.597 117.478 438.64 116.965 448.177L136.334 448.008Z" fill="#233862"/>
<path d="M176.945 447.92C174.145 446.211 175.737 433.456 175.737 433.456C175.737 433.456 188.787 423.015 190.581 431.011C192.375 439.006 202.98 442.594 209.016 443.571C213.182 444.248 214.474 446.555 214.873 447.92H176.945Z" fill="#233862"/>
<path d="M149.911 355.152C150.368 357.482 150.688 359.836 150.87 362.203C152.081 385.868 170.787 439.98 174.137 441.243C179.313 443.194 187.465 439.046 191.73 437.684C193.498 437.117 194.692 435.334 194.293 433.526C185.031 390.934 181.627 329.606 180.382 293.312C179.756 275.007 176.619 262.388 176.619 262.388C176.619 262.388 131.003 250.204 130.729 265.606C130.491 279.232 145.844 332.678 149.911 355.152Z" fill="#213F7A"/>
<path d="M149.911 355.152L180.389 293.282C179.763 274.978 176.626 262.359 176.626 262.359C176.626 262.359 131.003 250.204 130.729 265.606C130.491 279.232 145.844 332.678 149.911 355.152Z" fill="#233862"/>
<path d="M160.062 265.661L135.945 440.481C135.945 440.481 125.352 443.044 117.115 440.994C117.115 440.994 110.054 348.006 110.639 325.535C111.225 303.065 105.573 265.39 111.932 261.235C118.29 257.08 160.062 265.661 160.062 265.661Z" fill="#213F7A"/>
<path d="M107.232 262.747C107.176 263.513 107.386 264.275 107.826 264.905C108.266 265.535 108.909 265.995 109.648 266.206C113.012 267.18 116.889 267.861 124.371 269.41C133.62 271.277 143.031 272.224 152.467 272.236C170.942 272.353 177.937 265.983 177.937 265.983C178.736 265.983 177.517 262.132 176.422 243.746C176.056 237.523 175.69 229.623 175.434 219.643C175.203 210.666 175.046 200.002 175.031 187.346C175.009 172.128 151.453 155.749 151.017 155.749C151.017 157.945 147.565 161.972 142.231 162.338C135.917 162.752 128.171 159.607 128.171 155.972C128.171 155.935 116.757 174.233 112.701 193.731C112.185 196.202 111.789 198.809 111.471 201.554C110.504 209.813 111.445 203.927 107.232 262.747Z" fill="#A8B0C2"/>
<path d="M151.018 155.752C151.018 155.752 172.923 155.566 178.194 162.961C183.466 170.356 195.033 210.135 188.993 223.366C182.953 236.597 171.675 217.897 165.415 209.788C159.155 201.679 151.018 155.752 151.018 155.752Z" fill="#A8B0C2"/>
<path d="M151.241 152.406V154.672C151.241 154.672 151.86 161.756 143.14 162.788C134.42 163.821 127.926 161.485 128.161 156.023C128.948 151.791 129.694 147.424 129.753 143.92C129.773 142.501 129.669 141.082 129.442 139.681L146.343 139.344L151.318 140.157L151.241 152.406Z" fill="#FFC7A0"/>
<path d="M151.303 140.157L151.241 152.406C149.334 153.297 147.254 153.755 145.149 153.75C137.381 153.75 132.363 148.057 129.738 143.92C129.758 142.501 129.654 141.082 129.427 139.681L146.328 139.344L151.303 140.157Z" fill="#E2915A"/>
<path d="M128.134 136.961C130.093 147.515 143.711 147.167 149.593 146.505C151.252 146.322 152.291 146.109 152.291 146.109C154.158 145.612 155.22 142.668 155.685 138.817C156.644 131.191 155.432 120 154.143 117.137C152.207 112.832 148.554 108.171 134.844 111.532C121.135 114.893 125.62 123.441 128.134 136.961Z" fill="#FFC7A0"/>
<path d="M173.417 185.399C173.417 185.399 181.891 204.11 181.642 209.718C178.864 209.679 176.094 210.035 173.417 210.776C166.795 212.742 173.417 185.399 173.417 185.399Z" fill="#82858F"/>
<path d="M158.352 107.095C153.813 106.577 149.377 105.376 145.196 103.533C139.419 101.021 132.131 103.789 129.763 105.034C129.849 104.522 130.047 104.036 130.341 103.61C130.341 103.61 129.279 104.364 129.122 105.418C129.012 105.499 128.965 105.554 128.99 105.572C129.016 105.59 127.786 105.352 127.013 105.7C127.013 105.7 127.555 105.623 127.746 105.971C127.767 106.009 127.797 106.042 127.833 106.066C118.817 110.423 117.986 124.667 120.878 127.962C124.37 131.927 129.539 140.753 129.539 140.753C129.539 140.753 130.077 138.751 129.444 135.262C128.811 131.773 131.824 131.773 135.631 130.188C139.438 128.603 136.275 124.147 139.606 121.46C142.937 118.773 155.149 120.362 154.981 118.286C159.524 116.635 158.352 107.556 158.352 107.095Z" fill="#233862"/>
<path d="M125.371 220.452C128.951 234.814 167.629 242.238 176.422 243.747C176.056 237.523 175.69 229.623 175.434 219.643L125.371 220.452Z" fill="#82858F"/>
<path d="M133.863 225.12C133.497 225.12 125.264 223.89 123.789 223.154C122.314 222.418 115.574 212.834 119.989 210.377C124.404 207.921 136.257 217.747 136.257 217.747L133.863 225.12Z" fill="#FFC7A0"/>
<path d="M183.922 227.964C183.922 227.964 152.075 229.692 130.726 225.12C130.726 225.12 130.187 218.947 136.901 216.205C136.901 216.205 170.195 209.147 178.193 211.113C186.192 213.079 183.922 227.964 183.922 227.964Z" fill="#A8B0C2"/>
<path d="M110.819 202.982C117.408 210.948 126.062 217.454 135.583 218.977C135.664 218.856 138.468 214.602 137.941 208.36C137.699 205.468 136.74 202.136 134.474 198.6C133.729 197.407 133.102 196.144 132.603 194.829C127.402 181.562 128.178 155.994 128.178 155.994C128.178 155.994 106.1 158.308 99.2219 168.134C95.0084 174.137 100.382 190.388 110.819 202.982Z" fill="#A8B0C2"/>
<path d="M149.592 146.505C151.251 146.322 152.29 146.109 152.29 146.109C154.157 145.612 155.219 142.668 155.684 138.817C152.184 139.677 150.577 142.383 149.911 143.536C149.607 144.056 149.545 145.216 149.592 146.505Z" fill="#E2915A"/>
<path d="M158.489 152.472C158.489 152.472 166.114 139.89 160.184 139.344C154.254 138.799 151.87 142.818 151.017 144.283C150.165 145.747 151.241 152.406 151.241 152.406L158.489 152.472Z" fill="#FFC7A0"/>
<path d="M129.427 207.92C129.656 209.429 130.093 210.899 130.726 212.288C131.885 214.815 133.537 217.085 135.584 218.966C155.388 210.029 159.378 179.332 160.067 162.466C160.334 155.69 160.067 151.143 160.067 151.143C151.131 148.185 148.62 153.34 148.62 153.34C148.62 153.34 138.073 178.417 132.604 194.803C130.51 201.082 129.174 206.083 129.427 207.92Z" fill="#A8B0C2"/>
<path d="M110.819 202.982C117.408 210.948 126.062 217.454 135.583 218.977C155.388 210.04 159.378 179.343 160.066 162.478C160.066 162.478 150.695 196.466 137.941 208.345C135.635 210.494 133.219 211.922 130.726 212.292C130.726 212.292 114.644 207.745 111.273 203.465C111.152 203.278 110.999 203.114 110.819 202.982Z" fill="#82858F"/>
<path d="M936.188 387.057C936.188 387.057 926.502 375.756 935.592 368.581C935.592 368.581 942.228 364.554 947.643 364.887C947.643 364.887 939.955 377.748 942.452 379.029C944.948 380.31 949.967 364.081 949.967 364.081C949.967 364.081 965.071 362.617 969.932 364.953C969.932 364.953 957.017 375.522 959.737 376.148C962.457 376.774 976.404 366.406 976.404 366.406C976.404 366.406 990.465 368.797 989.714 377.389C988.964 385.981 984.121 388.617 981.99 388.372C979.86 388.126 967.406 383.389 967.136 385.135C966.865 386.882 974.362 392.582 979.611 392.849C979.611 392.849 969.698 403.781 963.112 400.625C956.527 397.469 955.963 392.468 951.856 390.594C947.749 388.719 944.245 388.723 945.94 390.634C947.635 392.545 955.066 394.409 957.416 398.56C959.767 402.712 961.872 405.516 955.055 404.491C948.239 403.466 937.162 398.48 936.675 392.776L936.188 387.057Z" fill="#DBCDFF"/>
<path d="M982.806 377.605C982.806 377.605 944.622 376.14 936.188 387.057C936.188 387.057 934.321 392.644 928.585 397.729L927.688 400.167C927.688 400.167 934.306 393.189 936.675 392.768C936.675 392.768 932.97 379.237 982.806 377.605Z" fill="#BDABEE"/>
<path d="M928.585 397.729C928.585 397.729 920.389 403.791 919.818 414.624L921.308 414.756C921.308 414.756 923.925 403.557 928.655 399.175C933.384 394.793 928.585 397.729 928.585 397.729Z" fill="#BDABEE"/>
<path d="M902.326 372.846C902.326 372.846 917.73 364.217 910.541 352.509C910.541 352.509 904.79 345.319 898.629 343.47C898.629 343.47 901.924 360.933 898.629 361.343C895.334 361.753 896.37 341.622 896.37 341.622C896.37 341.622 880.143 333.817 873.773 334.432C873.773 334.432 883.84 351.481 880.553 351.07C877.265 350.66 865.969 333.403 865.969 333.403C865.969 333.403 849.331 330.324 846.659 340.183C843.986 350.042 848.302 354.973 850.766 355.592C853.229 356.21 869.047 356.002 868.637 358.056C868.227 360.109 857.545 363.397 851.589 361.548C851.589 361.548 858.16 377.777 866.789 376.953C875.417 376.13 878.085 370.792 883.426 370.364C888.767 369.935 892.669 371.389 890.015 372.827C887.361 374.266 878.301 373.3 873.993 376.968C869.684 380.636 866.188 382.895 874.198 384.539C882.207 386.183 896.59 385.154 899.456 378.992L902.326 372.846Z" fill="#DBCDFF"/>
<path d="M854.258 343.265C854.258 343.265 897.396 357.235 902.326 372.846C902.326 372.846 902.121 379.831 906.434 387.856V390.938C906.434 390.938 901.916 380.46 899.449 379.025C899.449 379.011 909.106 365.451 854.258 343.265Z" fill="#BDABEE"/>
<path d="M906.435 387.841C906.435 387.841 913.087 397.945 909.294 410.242L907.584 409.785C907.584 409.785 909.246 396.239 905.754 389.426C902.262 382.613 906.435 387.841 906.435 387.841Z" fill="#BDABEE"/>
<path d="M926.832 360.947C926.832 360.947 906.526 349.573 916.003 334.138C916.003 334.138 923.585 324.66 931.708 322.222C931.708 322.222 927.373 345.242 931.708 345.784C936.042 346.326 934.684 319.791 934.684 319.791C934.684 319.791 956.077 309.5 964.471 310.313C964.471 310.313 951.201 332.788 955.535 332.246C959.869 331.704 974.761 308.959 974.761 308.959C974.761 308.959 996.692 304.895 1000.21 317.895C1003.73 330.895 998.046 337.393 994.795 338.206C991.545 339.018 970.697 338.744 971.239 341.453C971.781 344.162 985.86 348.493 993.712 346.058C993.712 346.058 985.047 367.449 973.677 366.366C962.307 365.282 958.786 358.242 951.742 357.7C944.699 357.158 939.56 359.055 943.078 360.951C946.596 362.847 958.515 361.573 964.2 366.406C969.885 371.238 974.49 374.218 963.929 376.386C953.368 378.553 934.413 377.198 930.617 369.064L926.832 360.947Z" fill="#DBCDFF"/>
<path d="M990.198 321.951C990.198 321.951 933.337 340.366 926.835 360.948C926.835 360.948 927.106 370.155 921.421 380.717V384.777C921.421 384.777 927.377 370.968 930.628 369.071C930.628 369.064 917.9 351.198 990.198 321.951Z" fill="#BDABEE"/>
<path d="M921.421 380.716C921.421 380.716 912.635 394.031 917.65 410.242L919.905 409.638C919.905 409.638 917.709 391.78 922.303 382.803C926.897 373.827 921.421 380.716 921.421 380.716Z" fill="#BDABEE"/>
<path d="M926.15 445.398C936.7 445.398 946.819 441.207 954.279 433.746C961.739 426.285 965.93 416.166 965.93 405.615H886.37C886.37 416.166 890.561 426.285 898.021 433.746C905.481 441.207 915.6 445.398 926.15 445.398Z" fill="#DBCDFF"/>
<path d="M966.48 447.408H885.832C885.832 446.106 886.349 444.857 887.27 443.936C888.191 443.016 889.439 442.499 890.741 442.499H961.586C962.23 442.499 962.869 442.626 963.464 442.872C964.059 443.119 964.6 443.481 965.056 443.937C965.511 444.393 965.873 444.934 966.119 445.529C966.365 446.125 966.492 446.763 966.491 447.408H966.48Z" fill="#DBCDFF"/>
<path d="M966.835 405.615H885.063V406.834H966.835V405.615Z" fill="#8476A8"/>
<path d="M787.8 140.321C781.943 137.283 777.254 139.194 777.254 139.194C759.339 137.089 754.111 157.985 754.353 165.186C754.594 172.387 755.418 180.097 747.416 189.44C724.302 216.403 772.718 217.6 772.718 217.6C773.128 196.041 798.969 203.908 797.834 206.09C830.949 214.042 801.118 147.23 787.8 140.321Z" fill="#163560"/>
<path d="M718.69 230.194C718.69 230.194 715.538 225.394 712.997 225.303C710.457 225.211 705.757 223.89 706.134 224.831C706.511 225.771 709.428 225.867 709.706 226.43C709.985 226.994 705.379 227.84 704.065 227.935C702.751 228.03 699.643 227.935 699.738 228.594C699.834 229.253 705.332 231.98 709.212 231.603C713.092 231.226 717.888 232.731 717.888 232.731L718.69 230.194Z" fill="#FFC7A0"/>
<path d="M764.254 231.742C762.879 234.317 761.266 236.757 759.437 239.031C755.692 243.721 749.919 249.139 742.671 250.208C739.212 250.721 735.825 249.974 732.71 248.594C723.925 244.684 717.288 235.7 717.288 235.7C715.736 231.464 718.276 228.594 718.276 228.594C718.276 228.594 736.052 232.595 737.744 231.746C739.435 230.897 749.311 202.459 751.654 198.874C753.997 195.29 762.018 193.445 762.018 193.445L764.254 231.742Z" fill="#3B057F"/>
<path d="M759.437 239.031C755.692 243.721 749.919 249.139 742.671 250.208C739.212 250.72 735.825 249.974 732.71 248.594C733.054 248.637 741.862 249.725 745.35 243.468C748.927 237.073 752.793 226.913 758.101 230.289C760.392 231.746 760.293 235.378 759.437 239.031Z" fill="#2D0066"/>
<path d="M830.556 423.634C830.556 423.634 835.981 428.583 834.923 432.101C833.865 435.62 828.971 437.959 828.308 442.261C827.645 446.562 825.013 448.905 822.619 448.905H811.271C811.271 448.905 809.518 445.881 813.749 444.966C817.981 444.051 819.581 439.006 819.317 434.316C819.054 429.627 819.713 423.37 819.713 423.37L828.707 421.287L830.556 423.634Z" fill="#233862"/>
<path d="M784.665 425.735C784.665 425.735 786.616 446.705 784.233 447.877L753.758 447.814C753.758 447.814 753.758 444.296 758.653 443.516C763.547 442.737 772.149 439.855 773.603 433.485C775.056 427.115 784.665 425.735 784.665 425.735Z" fill="#233862"/>
<path d="M806.396 275.285C800.125 261.22 796.289 257.182 797.021 252.818C797.566 249.567 795.359 192.237 795.359 192.237C794.627 192.01 793.126 191.801 792.31 191.622C791.039 191.352 789.858 190.763 788.877 189.911C787.897 189.059 787.149 187.971 786.705 186.749C785.64 183.762 784.791 179.347 784.809 173.815L784.007 173.973L770.5 176.649C770.5 176.649 770.807 180.899 770.818 184.904V185.003C770.828 186.695 770.286 188.344 769.274 189.7C768.262 191.056 766.835 192.044 765.21 192.515C763.504 193.01 762.021 193.431 762.021 193.431C762.021 193.431 757.061 207.591 756.113 222.14C755.165 236.688 765.133 243.007 756.036 272.078C746.753 301.78 809.844 283.058 806.396 275.285Z" fill="#FFC7A0"/>
<path d="M770.499 176.66C770.499 176.66 770.806 180.91 770.817 184.915C778.373 184.703 782.37 177.806 783.996 173.984L770.499 176.66Z" fill="#E8945B"/>
<path d="M767.977 180.452C767.977 180.452 785.859 180.745 785.87 169.605C785.881 158.465 788.198 151 776.781 150.341C765.363 149.682 763.141 153.929 762.233 157.663C761.326 161.397 763.324 180.086 767.977 180.452Z" fill="#FFC7A0"/>
<path d="M768.637 150.071C768.637 150.071 773.535 163.14 781.05 165.08C788.566 167.021 791.824 165 791.824 165C788.116 161.744 785.657 157.299 784.868 152.428C784.868 152.428 772.331 143.847 768.637 150.071Z" fill="#163560"/>
<path d="M769.851 151.128C769.851 151.128 766.22 152.487 764.726 155.137C762.923 158.23 762.08 161.789 762.307 165.362C762.307 165.362 758.62 156.481 762.764 151.451C767.161 146.113 769.851 151.128 769.851 151.128Z" fill="#163560"/>
<path d="M771.869 173.541C771.409 174.06 770.835 174.467 770.193 174.728C769.55 174.989 768.856 175.098 768.164 175.045C767.584 175.011 767.023 174.823 766.539 174.501C766.055 174.18 765.665 173.736 765.407 173.215C765.407 173.215 769.057 172.347 771.869 173.541Z" fill="#EBF3FA"/>
<path d="M808.105 217.6C808.378 222.291 808.378 226.993 808.105 231.684C807.805 236.78 802.655 243.6 801.923 245.288C800.092 249.52 798.02 250.208 798.02 250.208L782.019 254.133L776.393 255.509L758.654 250.208C758.654 250.208 750.571 227.653 753.818 214.953C757.065 202.253 762.018 193.442 762.018 193.442C762.018 193.442 776.496 207.617 795.33 192.237L808.105 217.6Z" fill="#3B057F"/>
<path d="M803.423 233.763C803.122 238.855 802.654 243.6 801.922 245.288C800.091 249.52 798.02 250.208 798.02 250.208L782.019 254.132L775.063 252.09C775.063 252.09 798.261 248.571 795.691 228.612L803.423 233.763Z" fill="#3B057F"/>
<path d="M759.782 253.635C759.782 253.635 750.996 280.982 750.433 290.295C749.869 299.609 767.228 422.572 767.923 426.848C768.582 430.875 773.605 433.471 773.605 433.471C773.605 433.471 775.914 434.833 779.209 433.903C783.785 432.61 785.231 431.065 785.231 431.065C785.231 431.065 792.069 343.364 787.837 312.037C785.261 292.666 783.831 273.16 783.554 253.62L759.782 253.635Z" fill="#82858F"/>
<path d="M797.007 252.818C797.007 252.818 810.408 270.801 811.649 282.959C812.89 295.117 813.608 337.814 816.273 349.665C818.938 361.515 828.719 384.323 828.719 421.287C828.719 421.287 827.705 423.407 824.564 424.534C823.364 424.939 822.142 425.277 820.903 425.545C819.646 425.833 818.328 425.688 817.162 425.135C815.997 424.582 815.051 423.652 814.479 422.495C807.864 409.18 786.804 366.241 785.724 357.331C784.959 351.019 778.312 309.274 763.804 284.778C760.323 278.895 765.942 255.491 765.942 255.491L797.007 252.818Z" fill="#A8B0C2"/>
<path d="M771.469 173.837C771.469 173.837 771.162 175.151 767.893 174.935C767.893 174.935 765.151 174.767 765.235 173.325C765.235 173.336 767.896 172.311 771.469 173.837Z" fill="white"/>
<path d="M758.379 249.41C758.379 249.41 761.904 252.2 768.91 252.339C777.282 252.507 798.02 250.204 798.02 250.204C798.591 251.911 798.889 253.698 798.902 255.498C798.902 255.498 773.574 261.886 758.898 256.432C758.898 256.435 757.006 252.873 758.379 249.41Z" fill="#233862"/>
<path d="M766.904 259.554C764.795 259.554 763.082 257.618 763.082 255.231C763.082 252.844 764.795 250.911 766.904 250.911C769.012 250.911 770.722 252.848 770.722 255.231C770.722 257.614 769.009 259.554 766.904 259.554ZM766.904 252.174C765.494 252.174 764.341 253.547 764.341 255.231C764.341 256.915 765.487 258.288 766.904 258.288C768.321 258.288 769.466 256.919 769.466 255.231C769.466 253.543 768.324 252.174 766.904 252.174Z" fill="white"/>
<path d="M794.344 218.795L768.394 241.395L799.327 276.919L825.277 254.319L794.344 218.795Z" fill="#B5453C"/>
<path d="M792.166 254.44C792.166 254.44 782.649 255.538 782.689 257.812C782.729 260.085 785.057 264.705 786.232 264.91C787.407 265.115 793.971 258.639 793.971 258.639L792.166 254.44Z" fill="#FFC7A0"/>
<path d="M795.345 192.241C795.345 192.241 808.04 193.13 812.916 204.962C817.792 216.795 827.017 236.651 827.017 239.994C827.017 243.336 821.859 253.638 794.162 259.558C794.162 259.558 791.296 256.545 791.472 254.162C791.472 254.162 808.761 239.309 808.713 237.574C808.625 234.279 805.88 229.956 790.699 214.77C786.563 210.641 795.345 192.241 795.345 192.241Z" fill="#3B057F"/>
<path d="M532.293 448.177H532.162C531.978 448.177 531.797 448.141 531.628 448.07C531.458 447.999 531.305 447.895 531.177 447.764C531.049 447.633 530.948 447.478 530.881 447.307C530.813 447.137 530.781 446.954 530.785 446.771L532.872 356.404L539.011 355.672L533.776 446.756C533.759 447.138 533.596 447.499 533.319 447.764C533.043 448.028 532.676 448.176 532.293 448.177Z" fill="#A7A7A7"/>
<path d="M496.507 448.177H496.375C496.192 448.177 496.011 448.14 495.842 448.069C495.673 447.998 495.521 447.894 495.393 447.763C495.265 447.632 495.164 447.477 495.097 447.306C495.03 447.136 494.998 446.954 495.002 446.771L497.085 356.404L503.228 355.672L497.989 446.756C497.973 447.138 497.809 447.499 497.533 447.764C497.257 448.028 496.889 448.176 496.507 448.177Z" fill="#797979"/>
<path d="M595.253 448.177H595.385C595.569 448.177 595.75 448.141 595.919 448.07C596.089 447.999 596.242 447.895 596.37 447.764C596.498 447.633 596.599 447.478 596.666 447.307C596.734 447.137 596.766 446.954 596.762 446.771L594.675 356.404L588.536 355.672L593.771 446.756C593.788 447.138 593.951 447.499 594.227 447.764C594.504 448.028 594.871 448.176 595.253 448.177Z" fill="#3B057F"/>
<path d="M492.436 350.799V288.889C492.436 286.299 492.946 283.733 493.937 281.34C494.929 278.946 496.382 276.771 498.214 274.939C500.045 273.107 502.22 271.654 504.614 270.662C507.007 269.671 509.572 269.161 512.163 269.161H556.775C559.366 269.16 561.932 269.669 564.326 270.66C566.72 271.651 568.896 273.105 570.728 274.937C572.56 276.769 574.014 278.944 575.005 281.338C575.997 283.732 576.507 286.298 576.506 288.889V353.179L492.436 350.799Z" fill="#A7A7A7"/>
<path d="M492.439 350.799H584.494V360.574H498.362C496.791 360.574 495.285 359.95 494.174 358.839C493.063 357.728 492.439 356.222 492.439 354.651V350.799Z" fill="#797979"/>
<path d="M594.816 350.799H529.649C527.231 350.799 525.271 352.76 525.271 355.178V356.196C525.271 358.614 527.231 360.574 529.649 360.574H594.816C597.234 360.574 599.195 358.614 599.195 356.196V355.178C599.195 352.76 597.234 350.799 594.816 350.799Z" fill="#A7A7A7"/>
<path d="M592.283 335.383C585.895 346.505 577.856 350.8 577.856 350.8H544.416C544.416 350.8 597.159 326.886 592.283 335.383Z" fill="#233862"/>
<path d="M566.601 421.437C566.203 421.876 565.94 422.42 565.842 423.004C565.745 423.588 565.818 424.188 566.051 424.732C566.051 424.732 566.051 424.732 566.051 424.751C566.849 426.947 569.485 429.415 572.546 431.875C572.937 432.19 573.278 432.475 573.589 432.742L573.819 432.951L574.002 433.116C576.854 435.744 575.782 436.348 580.91 441.686C586.767 447.77 590.794 447.88 591.925 447.328C592.895 446.855 590.926 443.626 588.748 440.006L588.429 439.475C588.136 438.995 587.851 438.505 587.561 438.01C584.999 433.647 585.662 431.6 586.266 425.106C586.76 419.827 594.476 395.613 594.476 395.613L583.275 393.684C583.275 393.684 579.9 412.962 576.181 415.931C574.193 417.513 571.967 417.535 570.056 418.706C569.924 418.791 569.789 418.871 569.661 418.959C568.535 419.645 567.506 420.479 566.601 421.437Z" fill="#FFC7A0"/>
<path d="M566.601 421.437C566.203 421.876 565.94 422.42 565.842 423.004C565.745 423.588 565.818 424.188 566.051 424.732C566.051 424.732 566.051 424.732 566.051 424.75C567.029 426.947 569.599 429.4 572.556 431.849C572.923 432.171 573.289 432.468 573.589 432.742L573.819 432.951L574.002 433.116C576.854 435.744 575.782 436.348 580.91 441.686C586.767 447.77 590.794 447.88 591.925 447.327C592.895 446.855 590.926 443.626 588.748 440.006C584.656 438.406 581.059 435.754 578.322 432.318C574.804 427.826 572.465 422.067 570.056 418.706C569.924 418.79 569.789 418.871 569.661 418.959C568.535 419.645 567.506 420.479 566.601 421.437Z" fill="#233862"/>
<path d="M656.949 414.438C657.641 417.897 662.571 417.322 668.077 415.975C673.583 414.628 672.276 416.228 680.117 415.36C687.958 414.492 690.33 411.571 690.568 410.403C690.784 409.371 686.908 409.005 682.756 408.525L681.182 408.338C676.493 407.749 673.056 404.721 668.795 402.236C664.768 399.882 658.739 390.286 658.739 390.286L647.987 391.139C647.987 391.139 653.629 399.71 655.81 403.433C657.095 405.629 657.026 408.521 656.865 410.755C656.729 411.981 656.758 413.219 656.949 414.438Z" fill="#FFC7A0"/>
<path d="M668.078 415.975C673.569 414.628 672.277 416.228 680.118 415.36C687.959 414.492 690.331 411.571 690.569 410.403C690.785 409.371 686.908 409.005 682.757 408.525L682.717 408.606C679.359 410.762 675.479 411.968 671.49 412.095C666.171 412.226 660.541 410.703 656.865 410.762C656.732 411.981 656.76 413.212 656.949 414.423C657.641 417.897 662.572 417.322 668.078 415.975Z" fill="#233862"/>
<path d="M615.752 345.693L605.7 372.725L592.58 408.038C590.242 408.211 587.892 407.996 585.625 407.401C582.484 406.493 578.882 404.106 578.882 404.106C578.882 404.106 582.543 366.19 589.322 344.433C591.065 338.847 593.016 334.325 595.179 331.785C605.693 319.349 615.752 345.693 615.752 345.693Z" fill="#233862"/>
<path d="M605.532 302.742C598.943 300.619 580.171 303.346 561.308 307.04L557.358 300.524L516.615 297.343C516.615 297.343 503.169 327.161 510.531 346.157C511.629 348.951 513.763 350.741 517.428 350.799H518.021H550.147C570.408 350.799 593.028 336.888 595.956 336.284C600.744 335.325 602.659 344.905 607.451 354.955C612.242 365.004 652.477 399.505 652.477 399.505C652.477 399.505 658.66 399.563 661.215 398.608C663.96 397.575 664.963 396.239 664.963 396.239C664.963 396.239 620.38 307.531 605.532 302.742Z" fill="#2B478B"/>
<path d="M555.753 181.873C550.533 179.135 542.575 178.765 541.301 178.578C525.864 176.503 516.57 198.94 516.043 205.739C515.036 218.27 508.406 220.181 499.075 228.027C480.369 243.769 485.857 262.048 496.085 268.842C502.224 272.921 513.041 268.842 513.041 268.842C513.195 268.948 542.626 252.368 557.137 244.398C578.867 241.316 569.056 188.858 555.753 181.873Z" fill="#233862"/>
<path d="M544.959 237.607C545.021 237.651 537.82 240.107 533.003 237.973C528.471 235.971 525.041 228.513 525.107 228.51C527.168 228.414 529.43 226.613 531.173 214.788L532.051 215.103L546.807 220.43C546.807 220.43 545.738 225.164 545.047 229.674C544.464 233.448 544.15 237.073 544.959 237.607Z" fill="#FFC7A0"/>
<path d="M546.808 220.43C546.808 220.43 545.739 225.164 545.047 229.674C536.573 228.147 533.245 219.701 532.052 215.118L546.808 220.43Z" fill="#ED975D"/>
<path d="M549.004 225.12C549.004 225.12 528.815 222.407 530.701 209.861C532.586 197.315 531.242 188.51 544.212 189.726C557.182 190.941 558.965 196.088 559.353 200.43C559.741 204.772 554.305 225.5 549.004 225.12Z" fill="#FFC7A0"/>
<path d="M558.612 193.537C558.612 193.537 545.69 204.677 536.897 205.574C528.104 206.471 524.781 203.648 524.781 203.648C528.289 200.508 531.113 196.68 533.079 192.402C533.524 191.392 534.232 190.52 535.128 189.877C536.024 189.233 537.076 188.841 538.175 188.741C544.453 188.214 556.372 187.968 558.612 193.537Z" fill="#233862"/>
<path d="M550.534 192.541C550.534 192.541 554.857 196.722 556.219 199.823C557.533 202.814 557.928 209.971 556.881 212.812C556.881 212.812 563.617 199.713 559.81 193.35C555.761 186.599 550.534 192.541 550.534 192.541Z" fill="#233862"/>
<path d="M561.959 267.352C561.348 308.223 561.79 299.682 557.321 303.559C556.241 304.492 553.214 305.049 549.227 305.312C536.697 306.147 514.671 304.082 513.832 301.765C510.94 293.751 512.979 291.262 510.571 278.99C510.318 277.687 510.007 276.274 509.641 274.736C507.631 266.316 505.673 263.442 512.807 249.904C519.276 237.644 525.986 227.69 526.601 228.048C543.67 238.182 545.047 229.663 545.047 229.663C545.047 229.663 562.255 247.415 561.959 267.352Z" fill="white"/>
<path d="M605.7 372.725L592.58 408.038C590.242 408.211 587.892 407.996 585.625 407.401C582.484 406.493 578.882 404.106 578.882 404.106C578.882 404.106 582.543 366.19 589.322 344.433L605.7 372.725Z" fill="#2B478B"/>
<path d="M545.047 229.663C545.047 229.663 562.618 232.639 564.672 240.203C566.725 247.766 578.868 292.217 578.868 292.217C578.868 292.217 569.943 293.824 565.818 289.699C561.692 285.573 551.464 251.431 551.464 251.431L545.047 229.663Z" fill="white"/>
<path d="M549.227 305.313C536.697 306.147 514.671 304.082 513.832 301.765C510.94 293.751 512.979 291.262 510.571 278.99L516.614 261.971C516.614 261.971 515.615 280.923 521.205 285.91C526.795 290.896 544.088 295.534 546.804 299.7C548.114 301.703 548.978 303.705 549.227 305.313Z" fill="#EBF3FF"/>
<path d="M534.87 297.343C534.87 297.343 547.235 294.59 549.227 295.684C551.218 296.779 556.098 300.78 556.709 302.171C557.321 303.563 552.269 301.113 550.625 300.674C549.56 300.388 546.76 301.362 545.372 301.824C539.537 303.768 535.964 302.768 535.964 302.768L534.87 297.343Z" fill="#FFC7A0"/>
<path d="M526.589 228.037C526.589 228.037 509.992 229.063 504.259 237.076C496.169 248.359 480.121 296.449 489.32 302.863C499.676 310.086 536.458 304.752 536.458 304.752C536.458 304.752 537.681 299.03 535.979 296.263C534.277 293.495 506.598 289.025 505.324 287.747C504.051 286.47 521.289 262.853 521.289 259.005C521.289 255.158 526.589 228.037 526.589 228.037Z" fill="white"/>
<path d="M549.827 299.14C549.827 299.14 552.419 302.483 553.268 302.882C553.695 303.113 554.179 303.218 554.663 303.182L552.921 300.041L549.827 299.14Z" fill="#FFC7A0"/>
<path d="M549.227 295.684L556.761 299.345C556.761 299.345 556.439 299.869 555.513 299.825C554.586 299.781 552.247 298.928 552.247 298.928L549.227 295.684Z" fill="#FFC7A0"/>
<path d="M553.269 307.985H612.846L630.765 263.417H571.283L553.269 307.985Z" fill="#A8B0C2"/>
<path d="M613.541 306.25H534.87V307.985H612.845L613.541 306.25Z" fill="#82858F"/>
<path d="M597.804 285.701C598.254 284.134 597.346 282.864 595.779 282.864C594.212 282.864 592.58 284.134 592.119 285.701C591.657 287.268 592.576 288.538 594.143 288.538C595.71 288.538 597.372 287.268 597.804 285.701Z" fill="white"/>
<path d="M277.742 265.796H277.552C275.338 265.796 273.543 267.591 273.543 269.805V354.446C273.543 356.66 275.338 358.455 277.552 358.455H277.742C279.956 358.455 281.751 356.66 281.751 354.446V269.805C281.751 267.591 279.956 265.796 277.742 265.796Z" fill="#A7A7A7"/>
<path d="M277.609 448.177H277.477C277.294 448.177 277.113 448.14 276.944 448.069C276.776 447.998 276.623 447.894 276.495 447.763C276.367 447.632 276.267 447.477 276.2 447.306C276.133 447.136 276.1 446.954 276.105 446.771L278.188 356.404L284.33 355.672L279.092 446.756C279.075 447.138 278.911 447.499 278.635 447.764C278.359 448.028 277.992 448.176 277.609 448.177Z" fill="#797979"/>
<path d="M376.356 448.177H376.488C376.671 448.177 376.853 448.141 377.022 448.07C377.191 447.999 377.344 447.895 377.472 447.764C377.601 447.633 377.701 447.478 377.769 447.307C377.836 447.137 377.868 446.954 377.864 446.771L375.777 356.404L369.638 355.672L374.873 446.756C374.89 447.138 375.054 447.499 375.33 447.764C375.606 448.028 375.973 448.176 376.356 448.177Z" fill="#A7A7A7"/>
<path d="M375.921 350.799H273.54V354.654C273.541 356.226 274.166 357.732 275.277 358.843C276.388 359.954 277.895 360.578 279.466 360.578H375.921C377.086 360.578 378.203 360.115 379.027 359.291C379.851 358.467 380.314 357.35 380.314 356.185V355.171C380.308 354.009 379.843 352.898 379.02 352.078C378.196 351.259 377.082 350.799 375.921 350.799Z" fill="#A7A7A7"/>
<path d="M427.174 428.858C427.174 428.858 425.666 447.595 429.005 447.844C429.451 447.877 446.019 447.877 446.019 447.877L467.171 447.756C467.171 447.756 467.032 442.66 460.852 441.58C454.673 440.5 442.432 435.301 438.687 427.126C434.759 418.531 427.174 428.858 427.174 428.858Z" fill="#163560"/>
<path d="M299.925 326.231C299.925 326.231 300.632 344.646 303.875 350.818H378.685C378.685 350.818 396.658 352.681 398.295 353.893C400.363 355.42 391.094 370.594 425.834 429.887L442.849 429.455C442.849 429.455 425.058 333.293 421.895 330.858C417.165 327.216 361.824 314.545 352.342 314.271C342.861 313.996 299.925 326.231 299.925 326.231Z" fill="#1C468A"/>
<path d="M341.859 217.106C347.631 220.683 347.957 227.807 347.957 227.807C333.875 231.468 313.39 215.817 313.39 215.817C313.39 215.817 322.453 209.725 325.81 196.345C325.984 195.666 326.137 194.974 326.272 194.269C326.738 191.855 326.993 189.405 327.033 186.947L333.501 192.742L344.256 202.378C344.256 202.378 344.015 206.376 342.668 213.255C342.438 214.45 342.169 215.734 341.859 217.106Z" fill="#FFC7A0"/>
<path d="M349.821 291.027C349.341 294.169 350.315 296.698 350.78 299.034C350.98 299.891 351.052 300.773 350.992 301.651C350.223 310.343 353.32 311.448 352.35 314.252C352.35 314.252 349.056 316.185 342.983 318.484C340.347 319.48 337.188 320.549 333.553 321.552L332.978 321.71C318.903 325.513 304.106 326.326 299.926 326.213C291.942 326 290.331 305.759 293.293 280.264C297.905 240.543 304.147 221.287 320.59 207.375C321.626 206.496 320.927 209.48 326.447 212.134C331.554 214.591 337.719 215.169 342.496 214.108L346.252 217.973C353.723 229.773 354.506 243.779 353.869 255.45C353.075 270.219 351.208 281.985 349.821 291.027Z" fill="#3B057F"/>
<path d="M344.263 202.371C344.263 202.371 344.838 201.77 343.491 208.646C331.579 205.201 327.699 199.127 326.107 195.1C325.656 193.962 330.536 193.357 333.508 192.728L344.263 202.371Z" fill="#ED975D"/>
<path d="M349.802 202.407C349.802 202.407 326.816 205.702 324.986 191.351C323.156 177 318.957 167.767 333.556 165.058C348.154 162.349 351.709 167.46 353.484 172.098C355.26 176.737 355.732 201.181 349.802 202.407Z" fill="#FFC7A0"/>
<path d="M436.311 308.735L438.068 309.285L452.467 263.251L450.709 262.702L436.311 308.735Z" fill="#1C468A"/>
<path d="M387.421 308.806L438.031 309.327L438.062 306.299L387.452 305.778L387.421 308.806Z" fill="#1C468A"/>
<path d="M317.658 165.348C317.471 165.132 317.046 164.956 316.091 164.897C316.638 164.592 317.251 164.423 317.877 164.407C318.09 163.082 318.814 160.746 321.102 160.182C320.728 160.397 320.408 160.694 320.165 161.05C319.922 161.406 319.763 161.813 319.7 162.24C322.369 159.542 328.058 157.605 343.758 158.97C364.448 160.768 357.519 173.98 354.828 175.529C352.137 177.077 345.42 172.703 340.423 173.061C335.426 173.42 334.42 180.625 332.736 181.602C331.052 182.58 331.715 180.834 329.441 179.772C327.168 178.71 326.912 182.514 327.552 184.989C328.193 187.463 325.019 190.7 325.019 190.7L321.864 187.244C318.708 183.792 315.824 169.25 317.295 166.164L317.658 165.348Z" fill="#2C3A64"/>
<path d="M352.35 314.253C352.35 314.253 349.056 316.185 342.983 318.485C316.758 299.349 316.9 254.052 316.758 253.28L349.704 282.285L350.802 299.034C351.002 299.891 351.073 300.773 351.014 301.652C350.223 310.343 353.32 311.448 352.35 314.253Z" fill="#2D0066"/>
<path d="M399.832 292.942C401.314 293.11 402.814 292.867 404.166 292.239C406.392 291.196 414.05 287.897 415.515 288.348C416.979 288.798 421.661 291.459 422.77 291.965C423.879 292.47 425.838 295.058 425.838 295.058C425.025 295.878 422.177 293.996 420.888 294.033C419.6 294.07 410.174 299.22 407.37 299.334C404.565 299.447 400.198 298.873 400.198 298.873L399.832 292.942Z" fill="#FFC7A0"/>
<path d="M416.93 293.356C416.956 293.506 420.379 297.324 422.989 296.112L420.13 293.29L416.93 293.356Z" fill="#FFC7A0"/>
<path d="M404.167 292.239C404.167 292.239 407.238 289.398 408.256 288.029C408.256 288.029 408.867 288.311 408.893 288.827C408.933 289.695 408.091 291.28 408.091 291.28L404.167 292.239Z" fill="#FFC7A0"/>
<path d="M343.751 224.655C326.868 214.375 306.943 232.343 315.319 250.241C325.034 271.002 341.203 296.321 354.056 297.833C363.207 298.898 389.388 302.255 400.473 300.187C400.473 300.187 405.843 300.451 402.929 291.803C402.929 291.803 367.113 281.82 361.161 274.077C357.973 269.926 352.54 261.524 344.143 224.911C344.106 224.746 343.879 224.735 343.751 224.655Z" fill="#3B057F"/>
<path d="M797.651 448.177H797.831C798.084 448.177 798.335 448.126 798.568 448.028C798.801 447.93 799.013 447.786 799.19 447.605C799.367 447.424 799.506 447.209 799.599 446.973C799.692 446.738 799.736 446.486 799.731 446.233L796.85 321.395L788.368 320.406L795.601 446.24C795.631 446.764 795.86 447.256 796.241 447.616C796.622 447.976 797.127 448.177 797.651 448.177Z" fill="#739AF0"/>
<path d="M380.551 448.177H380.368C380.115 448.176 379.865 448.125 379.631 448.027C379.398 447.929 379.187 447.785 379.01 447.604C378.833 447.423 378.694 447.208 378.601 446.973C378.508 446.737 378.463 446.486 378.468 446.233L381.349 321.395L389.835 320.406L382.598 446.24C382.569 446.763 382.34 447.255 381.96 447.616C381.579 447.976 381.075 448.176 380.551 448.177Z" fill="#739AF0"/>
<path d="M372.08 308.629H805.041C806.555 308.629 808.006 309.231 809.076 310.301C810.147 311.371 810.748 312.823 810.748 314.337V317.998C810.748 319.511 810.147 320.963 809.076 322.033C808.006 323.104 806.555 323.705 805.041 323.705H372.08C370.567 323.705 369.117 323.104 368.047 322.034C366.978 320.965 366.377 319.514 366.377 318.001V314.34C366.376 313.591 366.523 312.848 366.809 312.155C367.095 311.462 367.515 310.833 368.045 310.302C368.574 309.772 369.203 309.351 369.896 309.064C370.588 308.777 371.33 308.629 372.08 308.629Z" fill="#739AF0"/>
<path d="M269.582 116.057H262.353V142.657H269.582V116.057Z" fill="url(#paint1_linear_436_565)"/>
<path d="M268.678 113.425H263.586C263.346 113.424 263.117 113.328 262.947 113.159C262.778 112.989 262.682 112.76 262.681 112.52C262.682 112.281 262.778 112.051 262.947 111.882C263.117 111.713 263.346 111.617 263.586 111.616H268.678C268.917 111.617 269.146 111.713 269.316 111.882C269.485 112.051 269.581 112.281 269.582 112.52C269.581 112.76 269.485 112.989 269.316 113.159C269.146 113.328 268.917 113.424 268.678 113.425Z" fill="#A8AFC2"/>
<path d="M257.117 95.1676H249.888V142.657H257.117V95.1676Z" fill="url(#paint2_linear_436_565)"/>
<path d="M256.049 93.1978H250.957C250.718 93.1968 250.488 93.1012 250.319 92.9319C250.149 92.7625 250.054 92.533 250.053 92.2935C250.054 92.054 250.149 91.8246 250.319 91.6552C250.488 91.4858 250.718 91.3902 250.957 91.3893H256.049C256.289 91.3902 256.518 91.4858 256.687 91.6552C256.857 91.8246 256.952 92.054 256.953 92.2935C256.952 92.533 256.857 92.7625 256.687 92.9319C256.518 93.1012 256.289 93.1968 256.049 93.1978Z" fill="#A8AFC2"/>
<path d="M245.174 62.0983H237.944V142.657H245.174V62.0983Z" fill="url(#paint3_linear_436_565)"/>
<path d="M244.118 59.9016H238.994C238.754 59.9007 238.525 59.8051 238.355 59.6357C238.186 59.4663 238.09 59.2369 238.089 58.9974C238.09 58.7579 238.186 58.5284 238.355 58.359C238.525 58.1897 238.754 58.0941 238.994 58.0931H244.118C244.358 58.0941 244.587 58.1897 244.757 58.359C244.926 58.5284 245.022 58.7579 245.023 58.9974C245.022 59.2369 244.926 59.4663 244.757 59.6357C244.587 59.8051 244.358 59.9007 244.118 59.9016Z" fill="#A8AFC2"/>
<path d="M232.913 76.7166H225.684V142.661H232.913V76.7166Z" fill="url(#paint4_linear_436_565)"/>
<path d="M231.843 74.9518H226.748C226.508 74.9508 226.279 74.8553 226.109 74.6859C225.94 74.5165 225.844 74.2871 225.844 74.0476C225.844 73.808 225.94 73.5786 226.109 73.4092C226.279 73.2399 226.508 73.1443 226.748 73.1433H231.843C232.083 73.1443 232.312 73.2399 232.482 73.4092C232.651 73.5786 232.747 73.808 232.748 74.0476C232.747 74.2871 232.651 74.5165 232.482 74.6859C232.312 74.8553 232.083 74.9508 231.843 74.9518Z" fill="#A8AFC2"/>
<path d="M220.968 40.1216H213.738V142.661H220.968V40.1216Z" fill="url(#paint5_linear_436_565)"/>
<path d="M219.9 38.1593H214.804C214.564 38.1584 214.335 38.0628 214.166 37.8934C213.996 37.724 213.901 37.4946 213.9 37.2551C213.901 37.0156 213.996 36.7861 214.166 36.6167C214.335 36.4474 214.564 36.3518 214.804 36.3508H219.9C220.139 36.3518 220.369 36.4474 220.538 36.6167C220.707 36.7861 220.803 37.0156 220.804 37.2551C220.802 37.4943 220.706 37.7232 220.537 37.8924C220.368 38.0615 220.139 38.1574 219.9 38.1593Z" fill="#A8AFC2"/>
<path d="M209.335 56.1348H202.105V142.661H209.335V56.1348Z" fill="url(#paint6_linear_436_565)"/>
<path d="M208.267 54.2968H203.175C202.935 54.2958 202.706 54.2002 202.536 54.0309C202.367 53.8615 202.271 53.632 202.27 53.3925C202.271 53.153 202.367 52.9236 202.536 52.7542C202.706 52.5848 202.935 52.4892 203.175 52.4883H208.267C208.506 52.4892 208.735 52.5848 208.905 52.7542C209.074 52.9236 209.17 53.153 209.171 53.3925C209.17 53.632 209.074 53.8615 208.905 54.0309C208.735 54.2002 208.506 54.2958 208.267 54.2968Z" fill="#A8AFC2"/>
<path d="M740.734 308.629H681.161L663.238 264.061H722.724L740.734 308.629Z" fill="#2B478B"/>
<path d="M680.462 306.894H759.133V308.629H681.161L680.462 306.894Z" fill="#2B478B"/>
<path d="M696.211 286.345C695.761 284.778 696.665 283.508 698.232 283.508C699.798 283.508 701.435 284.778 701.892 286.345C702.35 287.912 701.438 289.182 699.872 289.182C698.305 289.182 696.646 287.912 696.211 286.345Z" fill="white"/>
<path d="M1060 448.206V448.634C1060.01 448.955 1059.89 449.267 1059.67 449.502C1059.46 449.737 1059.15 449.877 1058.83 449.89H31.8994C31.5793 449.876 31.2777 449.736 31.0598 449.501C30.842 449.266 30.7254 448.955 30.7353 448.634V448.206C30.7254 447.886 30.842 447.574 31.0598 447.339C31.2777 447.104 31.5793 446.965 31.8994 446.95H1058.83C1059.15 446.964 1059.46 447.103 1059.67 447.338C1059.89 447.573 1060.01 447.885 1060 448.206Z" fill="#79797A"/>
<defs>
<linearGradient id="paint0_linear_436_565" x1="691" y1="9" x2="590" y2="161.5" gradientUnits="userSpaceOnUse">
<stop stop-color="#209099"/>
<stop offset="1" stop-color="#9F19AB"/>
</linearGradient>
<linearGradient id="paint1_linear_436_565" x1="262.353" y1="129.357" x2="269.582" y2="129.357" gradientUnits="userSpaceOnUse">
<stop stop-color="#209099"/>
<stop offset="1" stop-color="#9F19AB"/>
</linearGradient>
<linearGradient id="paint2_linear_436_565" x1="249.888" y1="118.912" x2="257.117" y2="118.912" gradientUnits="userSpaceOnUse">
<stop stop-color="#209099"/>
<stop offset="1" stop-color="#9F19AB"/>
</linearGradient>
<linearGradient id="paint3_linear_436_565" x1="237.944" y1="102.378" x2="245.174" y2="102.378" gradientUnits="userSpaceOnUse">
<stop stop-color="#209099"/>
<stop offset="1" stop-color="#9F19AB"/>
</linearGradient>
<linearGradient id="paint4_linear_436_565" x1="225.684" y1="109.689" x2="232.913" y2="109.689" gradientUnits="userSpaceOnUse">
<stop stop-color="#209099"/>
<stop offset="1" stop-color="#9F19AB"/>
</linearGradient>
<linearGradient id="paint5_linear_436_565" x1="213.738" y1="91.3911" x2="220.968" y2="91.3911" gradientUnits="userSpaceOnUse">
<stop stop-color="#209099"/>
<stop offset="1" stop-color="#9F19AB"/>
</linearGradient>
<linearGradient id="paint6_linear_436_565" x1="202.105" y1="99.3978" x2="209.335" y2="99.3978" gradientUnits="userSpaceOnUse">
<stop stop-color="#209099"/>
<stop offset="1" stop-color="#9F19AB"/>
</linearGradient>
</defs>
</svg>
