<svg width="19" height="16" viewBox="0 0 19 16" fill="none" xmlns="http://www.w3.org/2000/svg">
<path d="M11.168 0.758955L18.043 7.32146C18.2285 7.49845 18.3335 7.74372 18.3335 8.00036C18.3335 8.257 18.2285 8.50192 18.043 8.67927L11.168 15.2418C10.7932 15.5982 10.2 15.5848 9.84219 15.21C9.48453 14.8389 9.49797 14.2432 9.87393 13.8842L15.0575 8.93894H1.76992C1.25234 8.93894 0.832031 8.51862 0.832031 8.00104C0.832031 7.48347 1.25234 7.06394 1.76992 7.06394H15.0551L9.87148 2.11862C9.49609 1.75895 9.48438 1.16325 9.83984 0.790986C10.1992 0.415986 10.7578 0.402705 11.168 0.758955Z" fill="#929DAC"/>
</svg>
