<svg width="21" height="21" viewBox="0 0 21 21" fill="none" xmlns="http://www.w3.org/2000/svg">
<path d="M17.3737 12.2188H15.458L13.7393 13.9375H17.3737C17.6896 13.9375 17.9466 14.1946 17.9466 14.5105V17.375C17.9466 17.6909 17.6896 17.948 17.3737 17.948H3.6237C3.30781 17.948 3.05078 17.6909 3.05078 17.375V14.5105C3.05078 14.1954 3.30788 13.9375 3.6237 13.9375H7.25814L5.53939 12.2188H3.6237C2.35791 12.2188 1.33203 13.2447 1.33203 14.5105V17.375C1.33203 18.6408 2.35791 19.6667 3.6237 19.6667H17.3737C18.6395 19.6667 19.6654 18.6408 19.6654 17.375V14.5105C19.6654 13.2465 18.6377 12.2188 17.3737 12.2188ZM16.8008 15.9427C16.8008 15.4679 16.4159 15.0834 15.9414 15.0834C15.467 15.0834 15.082 15.4665 15.082 15.9427C15.082 16.4172 15.467 16.8021 15.9414 16.8021C16.4159 16.8021 16.8008 16.419 16.8008 15.9427ZM9.88997 14.514C10.0583 14.7146 10.2767 14.7969 10.4987 14.7969C10.7207 14.7969 10.9384 14.713 11.1063 14.5452L15.9761 9.67536C16.3118 9.33967 16.3118 8.79594 15.9761 8.46006C15.6404 8.12419 15.0967 8.12437 14.7608 8.46006L11.3581 11.8643V2.19275C11.3581 1.7183 10.9749 1.33337 10.4987 1.33337C10.0225 1.33337 9.63932 1.7183 9.63932 2.19275V11.8643L6.2054 8.45903C5.86971 8.12333 5.32598 8.12333 4.9901 8.45903C4.65423 8.79472 4.65441 9.33845 4.9901 9.67432L9.88997 14.514Z" fill="white"/>
</svg>
