<svg width="682" height="401" viewBox="0 0 682 401" fill="none" xmlns="http://www.w3.org/2000/svg">
<path d="M123.895 352.605L132.555 347.005C132.555 347.005 136.745 324.695 133.635 305.005C129.255 277.265 110.365 267.695 103.505 270.455C96.6447 273.215 95.0347 281.455 107.425 297.455C114.735 306.875 124.125 326.865 123.895 352.605Z" fill="#9F19AB"/>
<g opacity="0.3">
<path d="M123.895 352.605L132.555 347.005C132.555 347.005 136.745 324.695 133.635 305.005C129.255 277.265 110.365 267.695 103.505 270.455C96.6447 273.215 95.0347 281.455 107.425 297.455C114.735 306.875 124.125 326.865 123.895 352.605Z" fill="white"/>
</g>
<path d="M127.045 341.595H126.955C126.793 341.571 126.648 341.483 126.551 341.352C126.453 341.221 126.412 341.057 126.435 340.895C130.025 314.895 119.575 286.475 107.845 275.005C107.775 274.952 107.717 274.885 107.675 274.807C107.633 274.73 107.608 274.645 107.601 274.557C107.595 274.47 107.607 274.381 107.637 274.299C107.667 274.216 107.715 274.141 107.776 274.078C107.838 274.015 107.912 273.966 107.994 273.934C108.075 273.902 108.163 273.888 108.251 273.892C108.339 273.897 108.425 273.92 108.503 273.96C108.581 274 108.65 274.057 108.705 274.125C120.705 285.795 131.295 314.715 127.705 341.065C127.682 341.221 127.602 341.362 127.479 341.46C127.357 341.559 127.201 341.607 127.045 341.595Z" fill="white"/>
<path d="M102.125 366.695C100.825 367.435 97.1246 364.585 96.1246 363.895C94.3712 362.702 92.9555 361.076 92.0146 359.175C90.9635 357.002 90.614 354.556 91.0146 352.175C91.2213 350.919 91.5187 349.679 91.9046 348.465C92.2446 347.265 92.5846 346.065 92.9046 344.865C93.3229 343.703 93.5032 342.469 93.4346 341.235C93.1146 338.775 90.9346 337.055 88.9446 335.565C86.7546 333.925 84.4646 331.755 84.4746 328.795C84.6368 326.497 85.5544 324.317 87.0846 322.595C88.5046 320.795 90.1846 319.215 91.4646 317.325C92.4395 316.019 92.9498 314.425 92.9146 312.795C92.7801 311.78 92.4398 310.804 91.9146 309.925C90.9146 307.995 89.4846 306.225 88.7646 304.155C88.0446 302.085 88.1446 299.505 89.7646 298.025C91.0946 296.805 93.0646 296.635 94.8646 296.755C96.5468 296.963 98.164 297.532 99.6046 298.425C104.305 301.035 106.985 306.605 111.975 308.625C113.944 309.235 115.947 309.725 117.975 310.095C119.975 310.625 121.975 311.655 122.975 313.505C124.805 317.165 121.405 321.675 122.695 325.505C123.835 328.945 127.175 330.255 129.055 333.355C129.82 334.723 130.125 336.301 129.925 337.855C129.765 340.483 129.125 343.059 128.035 345.455C126.797 347.922 125.407 350.31 123.875 352.605L102.125 366.695Z" fill="#9F19AB"/>
<g opacity="0.65">
<path d="M102.125 366.695C100.825 367.435 97.1246 364.585 96.1246 363.895C94.3712 362.702 92.9555 361.076 92.0146 359.175C90.9635 357.002 90.614 354.556 91.0146 352.175C91.2213 350.919 91.5187 349.679 91.9046 348.465C92.2446 347.265 92.5846 346.065 92.9046 344.865C93.3229 343.703 93.5032 342.469 93.4346 341.235C93.1146 338.775 90.9346 337.055 88.9446 335.565C86.7546 333.925 84.4646 331.755 84.4746 328.795C84.6368 326.497 85.5544 324.317 87.0846 322.595C88.5046 320.795 90.1846 319.215 91.4646 317.325C92.4395 316.019 92.9498 314.425 92.9146 312.795C92.7801 311.78 92.4398 310.804 91.9146 309.925C90.9146 307.995 89.4846 306.225 88.7646 304.155C88.0446 302.085 88.1446 299.505 89.7646 298.025C91.0946 296.805 93.0646 296.635 94.8646 296.755C96.5468 296.963 98.164 297.532 99.6046 298.425C104.305 301.035 106.985 306.605 111.975 308.625C113.944 309.235 115.947 309.725 117.975 310.095C119.975 310.625 121.975 311.655 122.975 313.505C124.805 317.165 121.405 321.675 122.695 325.505C123.835 328.945 127.175 330.255 129.055 333.355C129.82 334.723 130.125 336.301 129.925 337.855C129.765 340.483 129.125 343.059 128.035 345.455C126.797 347.922 125.407 350.31 123.875 352.605L102.125 366.695Z" fill="white"/>
</g>
<path d="M114.674 359.315C114.597 359.313 114.521 359.295 114.45 359.263C114.38 359.231 114.316 359.185 114.263 359.128C114.21 359.072 114.169 359.005 114.142 358.933C114.114 358.86 114.102 358.783 114.104 358.705C115.104 335.465 104.104 309.795 96.1544 302.345C96.0571 302.235 96.0042 302.093 96.0059 301.947C96.0076 301.8 96.064 301.659 96.1639 301.552C96.2638 301.445 96.4001 301.378 96.5463 301.366C96.6924 301.354 96.838 301.396 96.9544 301.485C105.074 309.095 116.254 335.185 115.274 358.755C115.272 358.831 115.254 358.906 115.223 358.976C115.191 359.045 115.146 359.108 115.091 359.16C115.035 359.212 114.969 359.252 114.898 359.279C114.827 359.306 114.751 359.318 114.674 359.315Z" fill="white"/>
<path d="M110.945 330.905C110.885 330.915 110.824 330.915 110.765 330.905C105.26 329.391 99.6067 328.479 93.9048 328.185C93.8273 328.183 93.7511 328.165 93.6805 328.133C93.6099 328.101 93.5463 328.055 93.4934 327.998C93.4404 327.942 93.3992 327.875 93.372 327.803C93.3448 327.73 93.3322 327.653 93.3348 327.575C93.3374 327.498 93.3553 327.422 93.3875 327.352C93.4196 327.282 93.4655 327.219 93.5223 327.167C93.5791 327.115 93.6457 327.075 93.7182 327.049C93.7908 327.023 93.8678 327.011 93.9448 327.015C99.755 327.319 105.515 328.252 111.125 329.795C111.273 329.844 111.397 329.948 111.47 330.086C111.543 330.224 111.559 330.385 111.515 330.535C111.47 330.648 111.39 330.744 111.288 330.811C111.186 330.877 111.066 330.91 110.945 330.905Z" fill="white"/>
<path d="M210.093 229.167C259.013 200.927 338.333 200.927 387.263 229.167C428.733 253.117 435.033 289.667 406.193 317.447L513.843 378.807C520.403 382.597 520.403 388.737 513.843 392.527L504.173 398.117C497.613 401.907 487.173 401.607 480.813 397.467L386.813 331.717C337.813 359.717 258.893 359.607 210.123 331.457C161.353 303.307 161.173 257.417 210.093 229.167Z" fill="#DCDCDC"/>
<path d="M358.1 32.1903L349.57 37.0903C349.613 36.7185 349.636 36.3446 349.64 35.9703V33.5103C349.64 29.1303 346.57 27.3603 342.78 29.5103C341.147 30.5069 339.751 31.8482 338.69 33.4403C338.07 27.9403 333.75 25.8903 328.51 28.9203C322.84 32.1903 318.24 40.1503 318.24 46.7003V50.3803C318.207 51.8476 318.504 53.3036 319.11 54.6403L312.06 58.7103C310.951 59.4318 310.029 60.4045 309.367 61.5496C308.705 62.6946 308.322 63.9796 308.25 65.3003C308.25 67.7303 309.96 68.7103 312.06 67.5003L358.06 40.9403C359.169 40.2188 360.091 39.2461 360.753 38.101C361.415 36.956 361.798 35.671 361.87 34.3503C361.91 31.9603 360.2 30.9803 358.1 32.1903Z" fill="#EBEBEB"/>
<path d="M246.24 54.2504L251.03 50.5604V40.0204C251.03 31.6704 257.69 22.0204 264.93 17.7904C272.17 13.6104 278.03 17.0004 278.03 25.3504V26.8804C279.557 24.4119 281.639 22.3335 284.11 20.8104C289.32 17.8104 293.54 20.2404 293.54 26.2504V26.9504L300.21 23.1004C303.64 21.1004 306.42 22.7204 306.42 26.6804C306.304 28.8358 305.681 30.9334 304.602 32.8029C303.523 34.6724 302.018 36.2612 300.21 37.4404L246.21 68.6004C242.78 70.6004 240 68.9703 240 65.0103C240.118 62.8519 240.745 60.752 241.83 58.882C242.914 57.012 244.425 55.4249 246.24 54.2504Z" fill="#EBEBEB"/>
<path d="M189.002 247.547V277.977C189.002 294.497 199.912 310.977 221.742 323.627C265.412 348.837 336.202 348.837 379.862 323.627C401.702 311.017 412.612 294.497 412.612 277.977V247.547C412.612 231.027 401.702 214.547 379.862 201.907C336.202 176.697 265.412 176.697 221.752 201.907C199.912 214.507 189.002 231.027 189.002 247.547ZM401.802 247.547C401.802 260.767 392.092 273.647 374.462 283.827C354.962 295.087 328.802 301.287 300.812 301.287C272.822 301.287 246.652 295.087 227.152 283.827C209.522 273.647 199.812 260.767 199.812 247.547C199.812 234.327 209.522 221.447 227.152 211.267C246.652 200.007 272.812 193.807 300.812 193.807C328.812 193.807 354.962 200.007 374.462 211.267C392.092 221.477 401.802 234.337 401.802 247.547Z" fill="#9F19AB"/>
<path opacity="0.2" d="M189.002 247.547V277.977C189.002 294.497 199.912 310.977 221.742 323.627C265.412 348.837 336.202 348.837 379.862 323.627C401.702 311.017 412.612 294.497 412.612 277.977V247.547C412.612 231.027 401.702 214.547 379.862 201.907C336.202 176.697 265.412 176.697 221.752 201.907C199.912 214.507 189.002 231.027 189.002 247.547ZM401.802 247.547C401.802 260.767 392.092 273.647 374.462 283.827C354.962 295.087 328.802 301.287 300.812 301.287C272.822 301.287 246.652 295.087 227.152 283.827C209.522 273.647 199.812 260.767 199.812 247.547C199.812 234.327 209.522 221.447 227.152 211.267C246.652 200.007 272.812 193.807 300.812 193.807C328.812 193.807 354.962 200.007 374.462 211.267C392.092 221.477 401.802 234.337 401.802 247.547Z" fill="white"/>
<path opacity="0.6" d="M412.503 280.817C410.763 291.287 406.153 299.167 387.593 313.657C361.333 334.157 294.863 342.527 256.283 329.797C219.903 317.797 208.283 294.307 208.283 278.197L208.373 268.737C202.763 262.037 199.793 254.847 199.793 247.547C199.793 240.077 202.903 232.697 208.793 225.867L208.923 212.537H206.833C194.933 223.157 188.973 235.347 188.973 247.537V277.977C188.973 294.497 199.883 310.977 221.713 323.627C265.383 348.837 336.173 348.837 379.833 323.627C400.443 311.747 411.323 296.387 412.503 280.817Z" fill="#9F19AB"/>
<path d="M379.873 201.907C336.213 176.697 265.423 176.697 221.753 201.907C178.083 227.117 178.093 267.987 221.753 293.197C265.413 318.407 336.213 318.407 379.873 293.197C423.533 267.987 423.533 227.117 379.873 201.907ZM374.473 283.827C354.973 295.087 328.813 301.287 300.813 301.287C272.813 301.287 246.663 295.087 227.163 283.827C209.533 273.647 199.823 260.767 199.823 247.547C199.823 234.327 209.533 221.447 227.163 211.267C246.663 200.007 272.813 193.807 300.813 193.807C328.813 193.807 354.973 200.007 374.473 211.267C392.103 221.447 401.813 234.337 401.813 247.547C401.813 260.757 392.093 273.647 374.473 283.827Z" fill="#9F19AB"/>
<path opacity="0.5" d="M379.873 201.907C336.213 176.697 265.423 176.697 221.753 201.907C178.083 227.117 178.093 267.987 221.753 293.197C265.413 318.407 336.213 318.407 379.873 293.197C423.533 267.987 423.533 227.117 379.873 201.907ZM374.473 283.827C354.973 295.087 328.813 301.287 300.813 301.287C272.813 301.287 246.663 295.087 227.163 283.827C209.533 273.647 199.823 260.767 199.823 247.547C199.823 234.327 209.533 221.447 227.163 211.267C246.663 200.007 272.813 193.807 300.813 193.807C328.813 193.807 354.973 200.007 374.473 211.267C392.103 221.447 401.813 234.337 401.813 247.547C401.813 260.757 392.093 273.647 374.473 283.827Z" fill="white"/>
<path d="M401.813 247.547C401.746 252.922 400.24 258.181 397.452 262.777C393.012 255.097 385.212 247.897 374.452 241.707C354.962 230.447 328.802 224.237 300.792 224.237C272.782 224.237 246.643 230.447 227.163 241.707C216.413 247.897 208.603 255.097 204.163 262.777C201.382 258.178 199.881 252.921 199.812 247.547C199.812 234.337 209.523 221.447 227.173 211.257C246.653 200.017 272.823 193.807 300.803 193.807C328.783 193.807 354.973 200.017 374.463 211.257C392.103 221.477 401.813 234.337 401.813 247.547Z" fill="#9F19AB"/>
<path opacity="0.3" d="M401.813 247.547C401.746 252.922 400.24 258.181 397.452 262.777C393.012 255.097 385.212 247.897 374.452 241.707C354.962 230.447 328.802 224.237 300.792 224.237C272.782 224.237 246.643 230.447 227.163 241.707C216.413 247.897 208.603 255.097 204.163 262.777C201.382 258.178 199.881 252.921 199.812 247.547C199.812 234.337 209.523 221.447 227.173 211.257C246.653 200.017 272.823 193.807 300.803 193.807C328.783 193.807 354.973 200.017 374.463 211.257C392.103 221.477 401.813 234.337 401.813 247.547Z" fill="white"/>
<path opacity="0.6" d="M227.173 211.257C209.523 221.447 199.812 234.337 199.812 247.547C199.881 252.921 201.382 258.178 204.163 262.777C208.613 255.097 216.423 247.897 227.163 241.707C231.701 239.107 236.42 236.835 241.283 234.907C237.013 236.547 223.943 240.757 228.713 228.287C234.393 213.477 262.053 197.477 282.393 194.777C261.483 196.847 242.303 202.527 227.173 211.257Z" fill="#9F19AB"/>
<path opacity="0.4" d="M374.473 225.047C354.973 213.787 328.813 207.587 300.813 207.587C272.813 207.587 246.663 213.787 227.163 225.047C212.613 233.447 203.473 243.687 200.723 254.437C203.473 265.187 212.613 275.437 227.163 283.827C246.663 295.087 272.823 301.287 300.813 301.287C328.803 301.287 354.973 295.087 374.473 283.827C389.013 275.427 398.153 265.187 400.913 254.437C398.153 243.687 389.013 233.477 374.473 225.047Z" fill="white"/>
<path d="M219.683 261.417C225.933 266.317 233.023 269.417 240.253 271.877C247.502 274.278 254.928 276.11 262.463 277.357C277.521 279.802 292.794 280.673 308.033 279.957C315.633 279.627 323.263 278.907 330.833 277.887C338.375 276.874 345.849 275.401 353.213 273.477C360.56 271.644 367.668 268.96 374.393 265.477C376.048 264.59 377.65 263.609 379.193 262.537C380.744 261.486 382.212 260.316 383.583 259.037C384.972 257.76 386.21 256.327 387.273 254.767C388.383 253.172 389.224 251.405 389.763 249.537C389.795 251.581 389.457 253.614 388.763 255.537C388.036 257.472 387.079 259.312 385.913 261.017C384.76 262.74 383.444 264.347 381.983 265.817C380.544 267.299 379.011 268.685 377.393 269.967C370.879 274.939 363.655 278.903 355.963 281.727C348.386 284.59 340.568 286.768 332.603 288.237C324.678 289.737 316.659 290.689 308.603 291.087C292.433 291.933 276.232 290.208 260.603 285.977C252.784 283.837 245.232 280.817 238.093 276.977C234.533 275.034 231.153 272.778 227.993 270.237C227.203 269.617 226.453 268.917 225.693 268.237C224.933 267.557 224.213 266.867 223.523 266.127C222.116 264.665 220.832 263.089 219.683 261.417Z" fill="white"/>
<path d="M376.542 312.567C376.677 309.848 377.452 307.199 378.804 304.835C380.156 302.472 382.046 300.462 384.322 298.967C386.472 297.717 388.412 297.587 389.832 298.387L414.742 312.637C416.152 313.447 417.032 315.197 417.042 317.637C416.908 320.357 416.133 323.006 414.781 325.369C413.429 327.732 411.538 329.743 409.262 331.237C407.102 332.497 405.142 332.627 403.722 331.817L378.822 317.567C377.452 316.827 376.552 315.077 376.542 312.567Z" fill="#37474F"/>
<path d="M378.882 317.637C377.452 316.827 376.552 315.077 376.542 312.567C376.583 310.544 377.036 308.55 377.872 306.707L413.682 327.227C412.523 328.871 411.039 330.259 409.322 331.307C407.162 332.567 405.203 332.697 403.783 331.887L378.882 317.637Z" fill="#263238"/>
<path d="M499.603 353.167L420.343 312.787L420.233 312.727C418.393 311.727 415.903 311.907 413.143 313.507C407.533 316.787 402.993 324.707 403.023 331.217C403.023 334.467 404.193 336.757 406.023 337.807L480.553 385.807C482.697 387.165 485.093 388.076 487.597 388.488C490.101 388.899 492.663 388.802 495.129 388.202C497.595 387.602 499.915 386.511 501.95 384.995C503.985 383.479 505.695 381.569 506.976 379.378C508.257 377.188 509.084 374.761 509.407 372.244C509.73 369.727 509.543 367.17 508.857 364.727C508.17 362.284 506.999 360.004 505.413 358.023C503.826 356.042 501.857 354.401 499.623 353.197L499.603 353.167Z" fill="#455A64"/>
<path d="M406.003 337.797L480.533 385.797C483.304 387.532 486.479 388.518 489.747 388.657C493.014 388.796 496.261 388.085 499.17 386.592C502.08 385.099 504.551 382.875 506.343 380.14C508.135 377.405 509.186 374.251 509.393 370.987C507.963 377.197 497.703 382.477 484.983 375.367C472.263 368.257 425.173 338.477 403.753 326.157C403.246 327.793 402.983 329.495 402.973 331.207C402.983 334.477 404.143 336.747 406.003 337.797Z" fill="#37474F"/>
<path d="M406.002 337.797C404.142 336.747 403.002 334.457 403.002 331.207C403.002 324.697 407.512 316.777 413.122 313.497C415.882 311.897 418.372 311.727 420.212 312.717L427.212 316.277C425.332 315.277 422.772 315.437 419.952 317.087C414.182 320.437 409.542 328.567 409.562 335.237C409.562 338.577 410.712 340.967 412.622 342.057" fill="#9F19AB"/>
<path opacity="0.2" d="M412.613 342.047C410.703 340.967 409.613 338.577 409.553 335.237C409.573 333.471 409.846 331.716 410.363 330.027C407.973 328.607 405.753 327.307 403.753 326.157C403.504 326.994 403.31 327.845 403.173 328.707C403.103 329.127 403.053 329.557 403.023 329.967C402.993 330.377 402.973 330.797 402.973 331.207C402.973 334.457 404.143 336.747 405.973 337.797L412.613 342.047Z" fill="black"/>
<path d="M567.015 105.674L523 92.1829L556.91 115.479L567.015 105.674Z" fill="#9F19AB"/>
<path opacity="0.15" d="M567.015 105.674L523 92.1829L556.91 115.479L567.015 105.674Z" fill="white"/>
<path d="M523 92.1829L570.372 99.805L580.477 90L523 92.1829Z" fill="#9F19AB"/>
<path opacity="0.15" d="M523 92.1829L570.372 99.805L580.477 90L523 92.1829Z" fill="white"/>
<path d="M570.372 99.805L570.422 111.514L567.015 105.674L523 92.1829L570.372 99.805Z" fill="#9F19AB"/>
<path opacity="0.2" d="M570.372 99.805L570.422 111.514L567.015 105.674L523 92.1829L570.372 99.805Z" fill="black"/>
<path d="M570.421 111.514L563.644 108.937L567.014 105.674L570.421 111.514Z" fill="#9F19AB"/>
<path opacity="0.2" d="M567.014 105.674L563.644 108.937L564.724 109.352L567.014 105.674Z" fill="black"/>
<path d="M574.161 112.08C574.079 112.143 574.023 112.235 574.004 112.338C573.989 112.46 574.018 112.583 574.087 112.686C574.155 112.788 574.257 112.863 574.376 112.896L575.686 113.247C575.74 113.264 575.797 113.269 575.853 113.262C575.91 113.255 575.964 113.236 576.012 113.206C576.06 113.176 576.102 113.136 576.133 113.089C576.164 113.041 576.185 112.988 576.194 112.932C576.211 112.809 576.183 112.685 576.116 112.581C576.049 112.477 575.947 112.401 575.829 112.366L574.512 112.016C574.452 111.998 574.39 111.995 574.329 112.007C574.268 112.018 574.211 112.043 574.161 112.08Z" fill="#455A64"/>
<path d="M580.145 113.676C581.003 113.962 581.848 114.263 582.693 114.571C582.807 114.614 582.902 114.698 582.96 114.805C583.017 114.913 583.034 115.038 583.007 115.158C582.992 115.213 582.966 115.265 582.929 115.309C582.893 115.353 582.848 115.39 582.796 115.415C582.745 115.441 582.689 115.455 582.631 115.458C582.574 115.46 582.517 115.451 582.463 115.43C581.633 115.115 580.796 114.821 579.951 114.542C579.835 114.503 579.736 114.422 579.674 114.316C579.612 114.209 579.591 114.083 579.615 113.962C579.632 113.871 579.683 113.789 579.758 113.733C579.813 113.692 579.877 113.666 579.944 113.656C580.012 113.646 580.081 113.653 580.145 113.676ZM586.851 116.267C587.688 116.632 588.511 116.983 589.327 117.412C589.437 117.464 589.525 117.555 589.573 117.667C589.62 117.779 589.624 117.905 589.585 118.02C589.565 118.074 589.534 118.123 589.493 118.164C589.453 118.205 589.404 118.236 589.35 118.256C589.296 118.276 589.239 118.283 589.182 118.278C589.124 118.274 589.069 118.256 589.019 118.228C588.211 117.834 587.395 117.455 586.579 117.097C586.466 117.049 586.374 116.962 586.321 116.851C586.268 116.74 586.258 116.614 586.292 116.496C586.321 116.421 586.367 116.355 586.428 116.303C586.488 116.258 586.56 116.231 586.634 116.225C586.709 116.218 586.784 116.233 586.851 116.267ZM593.363 119.545C594.165 120.003 594.959 120.482 595.725 120.976C595.831 121.038 595.909 121.137 595.945 121.253C595.98 121.37 595.971 121.496 595.919 121.606C595.89 121.657 595.851 121.701 595.805 121.736C595.758 121.77 595.705 121.795 595.648 121.808C595.591 121.821 595.533 121.821 595.476 121.81C595.419 121.799 595.365 121.776 595.317 121.742C594.566 121.263 593.786 120.797 592.998 120.311C592.892 120.251 592.811 120.156 592.77 120.041C592.729 119.927 592.732 119.801 592.777 119.688C592.801 119.635 592.836 119.589 592.881 119.551C592.925 119.514 592.976 119.486 593.032 119.47C593.088 119.455 593.146 119.451 593.204 119.461C593.261 119.47 593.315 119.491 593.363 119.523V119.545ZM599.533 123.56C600.284 124.111 601.021 124.684 601.73 125.256C601.826 125.33 601.89 125.437 601.912 125.556C601.933 125.675 601.909 125.798 601.844 125.9C601.809 125.947 601.765 125.985 601.713 126.013C601.662 126.041 601.606 126.058 601.548 126.062C601.49 126.067 601.431 126.06 601.376 126.04C601.322 126.021 601.271 125.99 601.229 125.95C600.513 125.385 599.798 124.827 599.082 124.283C598.983 124.213 598.914 124.11 598.888 123.992C598.861 123.874 598.879 123.751 598.939 123.646C598.962 123.606 598.994 123.572 599.032 123.546C599.107 123.496 599.196 123.472 599.286 123.476C599.376 123.479 599.462 123.511 599.533 123.567V123.56ZM605.258 128.312C605.931 128.949 606.597 129.615 607.241 130.28C607.324 130.367 607.37 130.482 607.37 130.602C607.37 130.722 607.324 130.838 607.241 130.924C607.2 130.966 607.152 130.999 607.098 131.021C607.045 131.043 606.987 131.055 606.929 131.055C606.871 131.055 606.814 131.043 606.761 131.021C606.707 130.999 606.659 130.966 606.618 130.924C605.981 130.266 605.33 129.615 604.664 128.992C604.575 128.912 604.519 128.801 604.508 128.681C604.498 128.562 604.533 128.442 604.607 128.348C604.623 128.328 604.642 128.311 604.664 128.298C604.743 128.243 604.837 128.215 604.933 128.219C605.028 128.223 605.12 128.258 605.194 128.319L605.258 128.312ZM610.34 133.766C610.798 134.331 611.256 134.904 611.7 135.491L612.065 135.97C612.138 136.062 612.173 136.179 612.162 136.296C612.151 136.414 612.096 136.522 612.007 136.6C611.908 136.666 611.788 136.69 611.671 136.667C611.554 136.644 611.451 136.576 611.385 136.478L611.034 136.006C610.59 135.433 610.147 134.868 609.688 134.31C609.606 134.224 609.56 134.11 609.56 133.991C609.56 133.872 609.606 133.758 609.688 133.673C609.785 133.609 609.902 133.583 610.016 133.602C610.13 133.62 610.233 133.682 610.304 133.773L610.34 133.766ZM614.09 139.634C614.196 139.578 614.319 139.565 614.434 139.598C614.549 139.632 614.647 139.709 614.705 139.813C615.199 140.593 615.686 141.395 616.137 142.204C616.168 142.252 616.19 142.307 616.2 142.364C616.21 142.421 616.209 142.48 616.197 142.536C616.184 142.593 616.16 142.647 616.126 142.694C616.093 142.741 616.05 142.781 616.001 142.812C615.891 142.863 615.766 142.869 615.652 142.831C615.537 142.792 615.442 142.711 615.385 142.604C614.927 141.81 614.455 141.023 613.954 140.25C613.888 140.16 613.859 140.049 613.872 139.939C613.885 139.828 613.94 139.727 614.026 139.656L614.09 139.634ZM617.726 146.076C617.839 146.035 617.963 146.039 618.074 146.087C618.184 146.135 618.272 146.223 618.32 146.333C618.721 147.171 619.1 148.022 619.458 148.874C619.483 148.927 619.498 148.984 619.5 149.043C619.502 149.101 619.492 149.16 619.471 149.214C619.449 149.269 619.417 149.318 619.375 149.359C619.333 149.401 619.283 149.433 619.229 149.454C619.113 149.488 618.988 149.477 618.88 149.422C618.772 149.368 618.69 149.274 618.649 149.16C618.298 148.323 617.933 147.486 617.532 146.67C617.485 146.581 617.469 146.478 617.489 146.378C617.508 146.279 617.562 146.19 617.64 146.126L617.726 146.076ZM620.474 152.875C620.593 152.85 620.717 152.872 620.821 152.936C620.925 153 621 153.101 621.032 153.218C621.311 154.091 621.562 154.986 621.791 155.873C621.807 155.928 621.811 155.986 621.804 156.043C621.796 156.1 621.777 156.155 621.748 156.204C621.718 156.253 621.679 156.295 621.632 156.328C621.585 156.361 621.532 156.384 621.476 156.396C621.355 156.412 621.233 156.382 621.133 156.314C621.032 156.245 620.961 156.142 620.932 156.024C620.71 155.151 620.46 154.277 620.216 153.419C620.187 153.336 620.184 153.245 620.208 153.161C620.233 153.076 620.283 153.001 620.352 152.946C620.376 152.913 620.405 152.884 620.438 152.86L620.474 152.875ZM622.199 159.931C622.321 159.927 622.44 159.967 622.534 160.045C622.628 160.123 622.689 160.233 622.707 160.354C622.85 161.255 622.965 162.164 623.05 163.059C623.059 163.116 623.055 163.173 623.039 163.228C623.023 163.283 622.995 163.334 622.958 163.377C622.92 163.421 622.874 163.456 622.822 163.48C622.77 163.504 622.714 163.517 622.657 163.517C622.534 163.511 622.418 163.462 622.329 163.378C622.24 163.294 622.184 163.181 622.17 163.059C622.084 162.179 621.97 161.291 621.834 160.411C621.819 160.337 621.826 160.26 621.852 160.189C621.879 160.118 621.924 160.056 621.984 160.01C622.033 159.963 622.096 159.933 622.163 159.924L622.199 159.931Z" fill="#455A64"/>
<path d="M669.54 221.028C666.87 219.428 663.09 219.648 658.89 222.028L582.72 266.028C574.59 270.718 568 281.878 568 290.948C568 295.378 569.57 298.488 572.13 299.948L580.3 304.658C582.97 306.178 586.71 305.938 590.84 303.548L667.01 259.548C675.14 254.858 681.74 243.698 681.74 234.638C681.74 230.228 680.18 227.128 677.64 225.638C676.24 224.878 670.89 221.828 669.54 221.028Z" fill="#E0E0E0"/>
<path d="M584.08 305.148C579.48 305.148 576.62 301.518 576.62 295.658C576.62 286.768 583.11 275.788 591.09 271.178L667.26 227.178C669.222 225.963 671.464 225.274 673.77 225.178C678.38 225.178 681.24 228.808 681.24 234.668C681.24 243.558 674.74 254.538 666.76 259.148L590.59 303.148C588.631 304.369 586.387 305.058 584.08 305.148Z" fill="#FAFAFA"/>
<path d="M673.77 225.698C678.07 225.698 680.77 229.138 680.77 234.698C680.77 243.428 674.39 254.218 666.55 258.748L590.38 302.748C588.496 303.925 586.339 304.593 584.12 304.688C583.17 304.72 582.226 304.533 581.359 304.143C580.492 303.753 579.726 303.17 579.12 302.438C577.702 300.486 576.997 298.107 577.12 295.698C577.12 286.968 583.5 276.178 591.35 271.698L667.51 227.698C669.398 226.531 671.553 225.866 673.77 225.768M673.77 224.768C671.375 224.856 669.044 225.569 667.01 226.838L590.85 270.838C582.71 275.538 576.12 286.688 576.12 295.758C576.12 302.108 579.35 305.758 584.12 305.758C586.515 305.667 588.845 304.954 590.88 303.688L667.05 259.688C675.18 254.998 681.77 243.838 681.77 234.778C681.77 228.428 678.54 224.778 673.77 224.778V224.768Z" fill="#EBEBEB"/>
<path d="M602.78 280.558C603.09 279.978 603.04 279.378 602.78 279.218L600.24 277.748C600.184 277.718 600.123 277.702 600.06 277.702C599.997 277.702 599.935 277.718 599.88 277.748L597.54 278.638L596.77 277.008C596.739 276.923 596.678 276.852 596.6 276.808L594.02 275.318C593.7 275.138 593.16 275.548 592.95 276.228L591.36 281.438C591.27 281.751 591.093 282.032 590.85 282.248L587.29 284.988C586.73 285.418 586.5 286.478 586.91 286.768L589.48 288.628C589.57 288.718 589.635 288.829 589.67 288.952C589.705 289.074 589.709 289.204 589.68 289.328L589.07 294.398C589.07 294.768 589.13 295.018 589.3 295.118L591.85 296.588C592.05 296.708 592.35 296.588 592.62 296.258L595.8 292.198C595.868 292.088 595.961 291.997 596.073 291.932C596.185 291.868 596.311 291.832 596.44 291.828L599.62 292.218C600.13 292.288 600.72 291.368 600.62 290.678L600.01 286.308C599.987 285.985 600.056 285.663 600.21 285.378L602.78 280.558Z" fill="#9F19AB"/>
<path opacity="0.15" d="M602.75 279.218C602.695 279.193 602.635 279.18 602.575 279.18C602.515 279.18 602.455 279.193 602.4 279.218L598.89 280.568C598.844 280.591 598.793 280.604 598.742 280.606C598.69 280.608 598.639 280.599 598.591 280.581C598.543 280.562 598.499 280.533 598.463 280.496C598.427 280.46 598.398 280.416 598.38 280.368L597.56 278.628L599.9 277.738C599.954 277.708 600.014 277.692 600.075 277.692C600.136 277.692 600.197 277.708 600.25 277.738L602.75 279.218Z" fill="white"/>
<path opacity="0.15" d="M593.89 282.918C593.799 283.23 593.618 283.508 593.37 283.718L589.89 286.458C589.726 286.587 589.593 286.751 589.5 286.938L586.89 285.458C586.985 285.275 587.114 285.112 587.27 284.978L590.82 282.238C591.075 282.036 591.26 281.76 591.35 281.448L593.89 282.918Z" fill="white"/>
<path opacity="0.1" d="M596.59 276.808C596.27 276.598 595.72 277.008 595.51 277.708L593.89 282.918L591.34 281.438L592.93 276.228C593.13 275.548 593.67 275.138 593.99 275.328C594.06 275.328 596.21 276.618 596.54 276.798L596.59 276.808Z" fill="black"/>
<path opacity="0.25" d="M592.03 290.108L589.51 288.658L586.89 286.768C586.6 286.558 586.63 285.948 586.89 285.458L589.44 286.938C589.18 287.418 589.15 288.028 589.44 288.248L592.03 290.108Z" fill="black"/>
<path opacity="0.15" d="M591.62 295.878C591.586 296.009 591.592 296.147 591.636 296.275C591.681 296.403 591.762 296.516 591.87 296.598L589.32 295.128C589.15 295.028 589.05 294.778 589.09 294.408L589.7 289.338C589.724 289.22 589.721 289.099 589.692 288.983C589.663 288.867 589.607 288.759 589.53 288.668L592.05 290.118C592.128 290.209 592.184 290.317 592.213 290.433C592.243 290.549 592.245 290.67 592.22 290.788L591.62 295.878Z" fill="black"/>
<path d="M596.74 276.998L598.33 280.368C598.349 280.416 598.378 280.46 598.416 280.497C598.453 280.534 598.497 280.562 598.546 280.581C598.595 280.6 598.647 280.608 598.699 280.606C598.752 280.604 598.803 280.591 598.85 280.568L602.4 279.208C602.97 278.988 603.19 279.788 602.78 280.558L600.21 285.378C600.057 285.663 599.987 285.985 600.01 286.308L600.62 290.678C600.72 291.368 600.13 292.288 599.62 292.218L596.44 291.828C596.311 291.832 596.185 291.867 596.073 291.932C595.961 291.997 595.868 292.088 595.8 292.198L592.62 296.258C592.12 296.908 591.53 296.678 591.62 295.868L592.22 290.798C592.252 290.675 592.25 290.547 592.215 290.425C592.18 290.304 592.112 290.194 592.02 290.108L589.45 288.248C589.04 287.948 589.27 286.898 589.83 286.458L593.39 283.718C593.638 283.508 593.819 283.23 593.91 282.918L595.5 277.708C595.76 276.878 596.49 276.458 596.74 276.998Z" fill="#9F19AB"/>
<path opacity="0.5" d="M596.74 276.998L598.33 280.368C598.349 280.416 598.378 280.46 598.416 280.497C598.453 280.534 598.497 280.562 598.546 280.581C598.595 280.6 598.647 280.608 598.699 280.606C598.752 280.604 598.803 280.591 598.85 280.568L602.4 279.208C602.97 278.988 603.19 279.788 602.78 280.558L600.21 285.378C600.057 285.663 599.987 285.985 600.01 286.308L600.62 290.678C600.72 291.368 600.13 292.288 599.62 292.218L596.44 291.828C596.311 291.832 596.185 291.867 596.073 291.932C595.961 291.997 595.868 292.088 595.8 292.198L592.62 296.258C592.12 296.908 591.53 296.678 591.62 295.868L592.22 290.798C592.252 290.675 592.25 290.547 592.215 290.425C592.18 290.304 592.112 290.194 592.02 290.108L589.45 288.248C589.04 287.948 589.27 286.898 589.83 286.458L593.39 283.718C593.638 283.508 593.819 283.23 593.91 282.918L595.5 277.708C595.76 276.878 596.49 276.458 596.74 276.998Z" fill="white"/>
<path d="M620.63 270.318C620.94 269.738 620.89 269.138 620.63 268.978L618.08 267.508C618.027 267.478 617.966 267.462 617.905 267.462C617.844 267.462 617.784 267.478 617.73 267.508L615.39 268.398L614.62 266.758C614.58 266.682 614.521 266.616 614.45 266.568C614.12 266.388 611.96 265.128 611.9 265.088C611.57 264.908 611.04 265.318 610.83 265.998L609.24 271.208C609.151 271.524 608.97 271.806 608.72 272.018L605.17 274.758C604.61 275.188 604.38 276.248 604.79 276.538L607.36 278.398C607.45 278.488 607.516 278.599 607.551 278.722C607.586 278.844 607.589 278.974 607.56 279.098L606.95 284.168C606.95 284.538 607.01 284.788 607.18 284.878L609.73 286.358C609.93 286.478 610.23 286.358 610.5 286.028L613.68 281.968C613.748 281.858 613.842 281.767 613.954 281.702C614.065 281.638 614.191 281.602 614.32 281.598L617.5 281.988C618.01 282.058 618.6 281.138 618.5 280.448L617.89 276.018C617.862 275.695 617.932 275.371 618.09 275.088L620.63 270.318Z" fill="#9F19AB"/>
<path opacity="0.15" d="M620.6 268.918C620.545 268.893 620.485 268.88 620.425 268.88C620.364 268.88 620.305 268.893 620.25 268.918L616.69 270.318C616.644 270.341 616.593 270.354 616.542 270.356C616.49 270.358 616.439 270.349 616.391 270.331C616.343 270.312 616.299 270.283 616.263 270.246C616.226 270.21 616.198 270.166 616.18 270.118L615.36 268.378L617.7 267.488C617.754 267.46 617.814 267.446 617.875 267.446C617.936 267.446 617.996 267.46 618.05 267.488L620.6 268.918Z" fill="white"/>
<path opacity="0.15" d="M611.77 272.628C611.677 272.941 611.492 273.22 611.24 273.428L607.69 276.168C607.529 276.298 607.399 276.462 607.31 276.648L604.76 275.168C604.851 274.983 604.981 274.819 605.14 274.688L608.69 271.948C608.939 271.743 609.121 271.468 609.21 271.158L611.77 272.628Z" fill="white"/>
<path opacity="0.1" d="M614.44 266.518C614.12 266.308 613.57 266.718 613.36 267.418L611.77 272.628L609.21 271.148L610.8 265.938C611.01 265.258 611.55 264.848 611.87 265.028C611.94 265.028 614.09 266.328 614.42 266.508L614.44 266.518Z" fill="black"/>
<path opacity="0.25" d="M609.89 279.818L607.35 278.318L604.78 276.458C604.48 276.248 604.52 275.638 604.78 275.148L607.33 276.628C607.07 277.108 607.03 277.718 607.33 277.938L609.89 279.818Z" fill="black"/>
<path opacity="0.15" d="M609.47 285.588C609.47 285.958 609.53 286.208 609.72 286.308L607.17 284.828C607 284.728 606.9 284.488 606.94 284.118L607.55 279.048C607.575 278.928 607.571 278.805 607.54 278.687C607.509 278.569 607.45 278.459 607.37 278.368L609.89 279.818C609.968 279.909 610.024 280.017 610.053 280.133C610.083 280.249 610.085 280.37 610.06 280.488L609.47 285.588Z" fill="black"/>
<path d="M614.59 266.698L616.18 270.078C616.2 270.126 616.229 270.17 616.266 270.207C616.303 270.244 616.348 270.272 616.397 270.291C616.445 270.31 616.497 270.319 616.55 270.316C616.602 270.314 616.653 270.301 616.7 270.278L620.25 268.918C620.81 268.698 621.04 269.498 620.63 270.268L618.06 275.088C617.902 275.371 617.832 275.695 617.86 276.018L618.47 280.388C618.57 281.078 617.98 281.998 617.47 281.928L614.29 281.538C614.161 281.542 614.035 281.578 613.924 281.642C613.812 281.707 613.718 281.798 613.65 281.908L610.47 285.968C609.97 286.618 609.38 286.388 609.47 285.578L610.08 280.508C610.109 280.384 610.106 280.254 610.071 280.132C610.036 280.009 609.97 279.898 609.88 279.808L607.31 277.958C606.9 277.658 607.13 276.608 607.69 276.168L611.25 273.428C611.496 273.218 611.673 272.939 611.76 272.628L613.35 267.418C613.61 266.588 614.34 266.168 614.59 266.698Z" fill="#9F19AB"/>
<path opacity="0.5" d="M614.59 266.698L616.18 270.078C616.2 270.126 616.229 270.17 616.266 270.207C616.303 270.244 616.348 270.272 616.397 270.291C616.445 270.31 616.497 270.319 616.55 270.316C616.602 270.314 616.653 270.301 616.7 270.278L620.25 268.918C620.81 268.698 621.04 269.498 620.63 270.268L618.06 275.088C617.902 275.371 617.832 275.695 617.86 276.018L618.47 280.388C618.57 281.078 617.98 281.998 617.47 281.928L614.29 281.538C614.161 281.542 614.035 281.578 613.924 281.642C613.812 281.707 613.718 281.798 613.65 281.908L610.47 285.968C609.97 286.618 609.38 286.388 609.47 285.578L610.08 280.508C610.109 280.384 610.106 280.254 610.071 280.132C610.036 280.009 609.97 279.898 609.88 279.808L607.31 277.958C606.9 277.658 607.13 276.608 607.69 276.168L611.25 273.428C611.496 273.218 611.673 272.939 611.76 272.628L613.35 267.418C613.61 266.588 614.34 266.168 614.59 266.698Z" fill="white"/>
<path d="M638.48 259.968C638.79 259.398 638.73 258.798 638.48 258.638L635.89 257.168C635.836 257.14 635.776 257.125 635.715 257.125C635.654 257.125 635.594 257.14 635.54 257.168L633.2 258.068L632.43 256.428C632.392 256.347 632.329 256.28 632.25 256.238L629.7 254.758C629.38 254.578 628.85 254.988 628.64 255.668L627.05 260.878C626.963 261.192 626.782 261.471 626.53 261.678L622.98 264.428C622.41 264.858 622.19 265.918 622.6 266.208L625.17 268.068C625.259 268.159 625.323 268.27 625.358 268.393C625.393 268.515 625.397 268.644 625.37 268.768L624.76 273.838C624.71 274.208 624.82 274.458 624.99 274.548L627.54 276.028C627.74 276.138 628.04 276.028 628.31 275.698L631.49 271.638C631.557 271.527 631.65 271.434 631.762 271.37C631.874 271.305 632.001 271.27 632.13 271.268L635.31 271.658C635.81 271.718 636.4 270.808 636.31 270.118L635.7 265.748C635.672 265.425 635.742 265.101 635.9 264.818L638.48 259.968Z" fill="#9F19AB"/>
<path opacity="0.15" d="M638.45 258.628C638.395 258.603 638.335 258.59 638.275 258.59C638.215 258.59 638.155 258.603 638.1 258.628L634.54 259.988C634.494 260.011 634.443 260.024 634.392 260.026C634.34 260.028 634.289 260.019 634.241 260.001C634.193 259.982 634.149 259.953 634.113 259.916C634.077 259.88 634.048 259.836 634.03 259.788L633.21 258.048L635.55 257.158C635.604 257.13 635.664 257.116 635.725 257.116C635.786 257.116 635.846 257.13 635.9 257.158L638.45 258.628Z" fill="white"/>
<path opacity="0.15" d="M629.61 262.318C629.521 262.631 629.34 262.909 629.09 263.118L625.54 265.858C625.377 265.985 625.246 266.15 625.16 266.338L622.61 264.858C622.701 264.673 622.831 264.509 622.99 264.378L626.54 261.638C626.789 261.433 626.971 261.158 627.06 260.848L629.61 262.318Z" fill="white"/>
<path opacity="0.1" d="M632.28 256.228C631.96 256.018 631.42 256.428 631.2 257.128L629.61 262.318L627.06 260.838L628.65 255.628C628.86 254.948 629.39 254.538 629.71 254.718C629.78 254.718 631.94 256.018 632.27 256.188C632.27 256.218 632.28 256.218 632.28 256.228Z" fill="black"/>
<path opacity="0.25" d="M627.73 269.528L625.2 268.068L622.63 266.208C622.33 265.988 622.37 265.388 622.63 264.898L625.18 266.378C624.92 266.858 624.88 267.468 625.18 267.688L627.73 269.528Z" fill="black"/>
<path opacity="0.15" d="M627.32 275.318C627.32 275.698 627.38 275.948 627.56 276.048L625 274.568C624.83 274.468 624.73 274.228 624.78 273.858L625.39 268.788C625.415 268.668 625.412 268.544 625.381 268.426C625.35 268.308 625.291 268.199 625.21 268.108L627.74 269.568C627.822 269.657 627.881 269.764 627.912 269.881C627.943 269.997 627.946 270.12 627.92 270.238L627.32 275.318Z" fill="black"/>
<path d="M632.44 256.408L634.03 259.788C634.049 259.836 634.077 259.88 634.113 259.917C634.149 259.953 634.193 259.982 634.241 260.001C634.289 260.02 634.34 260.028 634.392 260.026C634.444 260.024 634.494 260.011 634.54 259.988L638.1 258.628C638.66 258.408 638.89 259.208 638.48 259.968L635.89 264.798C635.732 265.081 635.662 265.405 635.69 265.728L636.3 270.098C636.39 270.788 635.8 271.698 635.3 271.638L632.12 271.248C631.991 271.25 631.864 271.285 631.752 271.35C631.64 271.415 631.547 271.507 631.48 271.618L628.3 275.678C627.79 276.328 627.2 276.098 627.3 275.288L627.91 270.218C627.939 270.094 627.936 269.964 627.901 269.842C627.866 269.719 627.8 269.608 627.71 269.518L625.14 267.668C624.73 267.368 624.96 266.318 625.52 265.878L629.07 263.138C629.322 262.931 629.503 262.652 629.59 262.338L631.18 257.128C631.45 256.318 632.18 255.878 632.44 256.408Z" fill="#9F19AB"/>
<path opacity="0.5" d="M632.44 256.408L634.03 259.788C634.049 259.836 634.077 259.88 634.113 259.917C634.149 259.953 634.193 259.982 634.241 260.001C634.289 260.02 634.34 260.028 634.392 260.026C634.444 260.024 634.494 260.011 634.54 259.988L638.1 258.628C638.66 258.408 638.89 259.208 638.48 259.968L635.89 264.798C635.732 265.081 635.662 265.405 635.69 265.728L636.3 270.098C636.39 270.788 635.8 271.698 635.3 271.638L632.12 271.248C631.991 271.25 631.864 271.285 631.752 271.35C631.64 271.415 631.547 271.507 631.48 271.618L628.3 275.678C627.79 276.328 627.2 276.098 627.3 275.288L627.91 270.218C627.939 270.094 627.936 269.964 627.901 269.842C627.866 269.719 627.8 269.608 627.71 269.518L625.14 267.668C624.73 267.368 624.96 266.318 625.52 265.878L629.07 263.138C629.322 262.931 629.503 262.652 629.59 262.338L631.18 257.128C631.45 256.318 632.18 255.878 632.44 256.408Z" fill="white"/>
<path d="M656.33 249.678C656.64 249.098 656.58 248.508 656.33 248.348L653.79 246.868C653.734 246.842 653.672 246.829 653.61 246.829C653.548 246.829 653.487 246.842 653.43 246.868L651.09 247.768L650.32 246.128C650.289 246.046 650.228 245.978 650.15 245.938L647.6 244.458C647.28 244.278 646.75 244.688 646.54 245.368L644.89 250.568C644.799 250.88 644.618 251.158 644.37 251.368L640.89 254.108C640.32 254.548 640.1 255.598 640.5 255.898L643.08 257.758C643.169 257.848 643.233 257.96 643.267 258.083C643.3 258.206 643.301 258.335 643.27 258.458L642.67 263.528C642.62 263.898 642.67 264.138 642.89 264.238L645.45 265.718C645.65 265.828 645.94 265.718 646.22 265.388L649.4 261.328C649.467 261.217 649.56 261.124 649.672 261.06C649.784 260.995 649.911 260.96 650.04 260.958L653.22 261.348C653.72 261.408 654.31 260.498 654.22 259.808L653.62 255.438C653.588 255.114 653.658 254.789 653.82 254.508L656.33 249.678Z" fill="#9F19AB"/>
<path opacity="0.15" d="M656.3 248.318C656.245 248.293 656.185 248.281 656.125 248.281C656.065 248.281 656.005 248.293 655.95 248.318L652.39 249.678C652.343 249.701 652.292 249.714 652.24 249.716C652.187 249.718 652.135 249.71 652.086 249.691C652.038 249.672 651.993 249.644 651.956 249.607C651.919 249.57 651.889 249.526 651.87 249.478L651.06 247.738L653.39 246.848C653.446 246.82 653.508 246.806 653.57 246.806C653.632 246.806 653.694 246.82 653.75 246.848L656.3 248.318Z" fill="white"/>
<path opacity="0.15" d="M647.46 252.038C647.374 252.354 647.192 252.637 646.94 252.848L643.39 255.588C643.227 255.715 643.097 255.88 643.01 256.068L640.45 254.588C640.549 254.405 640.681 254.242 640.84 254.108L644.39 251.368C644.639 251.158 644.819 250.88 644.91 250.568L647.46 252.038Z" fill="white"/>
<path opacity="0.1" d="M650.13 245.938C649.81 245.728 649.27 246.138 649.05 246.828L647.46 252.038L644.89 250.568L646.48 245.358C646.69 244.678 647.22 244.268 647.54 244.448C647.61 244.448 649.77 245.748 650.09 245.918L650.13 245.938Z" fill="black"/>
<path opacity="0.25" d="M645.58 259.228L643.05 257.778L640.48 255.918C640.19 255.698 640.23 255.098 640.48 254.608L643.04 256.088C642.78 256.568 642.74 257.178 643.04 257.388L645.58 259.228Z" fill="black"/>
<path opacity="0.15" d="M645.17 264.998C645.17 265.378 645.23 265.628 645.41 265.728L642.89 264.238C642.72 264.138 642.62 263.898 642.67 263.528L643.28 258.458C643.303 258.338 643.299 258.215 643.268 258.097C643.237 257.979 643.179 257.87 643.1 257.778L645.63 259.228C645.712 259.317 645.771 259.424 645.802 259.541C645.834 259.657 645.836 259.78 645.81 259.898L645.17 264.998Z" fill="black"/>
<path d="M650.28 246.118L651.87 249.498C651.89 249.546 651.919 249.59 651.956 249.627C651.993 249.664 652.038 249.692 652.086 249.711C652.135 249.73 652.187 249.738 652.24 249.736C652.292 249.734 652.343 249.721 652.39 249.698L655.95 248.338C656.51 248.118 656.74 248.918 656.33 249.678L653.76 254.508C653.598 254.789 653.528 255.114 653.56 255.438L654.16 259.808C654.26 260.498 653.67 261.408 653.16 261.348L649.98 260.958C649.851 260.96 649.724 260.995 649.612 261.06C649.5 261.124 649.406 261.217 649.34 261.328L646.16 265.388C645.65 266.038 645.06 265.808 645.16 264.998L645.77 259.928C645.797 259.804 645.793 259.675 645.758 259.553C645.723 259.43 645.659 259.319 645.57 259.228L643 257.378C642.59 257.078 642.81 256.018 643.38 255.588L646.93 252.848C647.182 252.641 647.363 252.362 647.45 252.048L649.04 246.838C649.3 246.008 650.03 245.588 650.28 246.118Z" fill="#9F19AB"/>
<path opacity="0.5" d="M650.28 246.118L651.87 249.498C651.89 249.546 651.919 249.59 651.956 249.627C651.993 249.664 652.038 249.692 652.086 249.711C652.135 249.73 652.187 249.738 652.24 249.736C652.292 249.734 652.343 249.721 652.39 249.698L655.95 248.338C656.51 248.118 656.74 248.918 656.33 249.678L653.76 254.508C653.598 254.789 653.528 255.114 653.56 255.438L654.16 259.808C654.26 260.498 653.67 261.408 653.16 261.348L649.98 260.958C649.851 260.96 649.724 260.995 649.612 261.06C649.5 261.124 649.406 261.217 649.34 261.328L646.16 265.388C645.65 266.038 645.06 265.808 645.16 264.998L645.77 259.928C645.797 259.804 645.793 259.675 645.758 259.553C645.723 259.43 645.659 259.319 645.57 259.228L643 257.378C642.59 257.078 642.81 256.018 643.38 255.588L646.93 252.848C647.182 252.641 647.363 252.362 647.45 252.048L649.04 246.838C649.3 246.008 650.03 245.588 650.28 246.118Z" fill="white"/>
<path d="M674.18 239.388C674.48 238.808 674.43 238.218 674.18 238.058L671.64 236.578C671.583 236.552 671.522 236.539 671.46 236.539C671.398 236.539 671.337 236.552 671.28 236.578L668.94 237.478L668.17 235.838C668.136 235.755 668.076 235.685 668 235.638C667.68 235.468 665.52 234.208 665.45 234.168C665.13 233.988 664.59 234.398 664.39 235.078L662.76 240.318C662.669 240.63 662.488 240.908 662.24 241.118L658.68 243.858C658.12 244.298 657.89 245.348 658.3 245.648L660.87 247.508C660.962 247.595 661.028 247.704 661.064 247.826C661.099 247.947 661.101 248.075 661.07 248.198L660.46 253.278C660.46 253.648 660.52 253.888 660.69 253.988L663.24 255.468C663.44 255.578 663.74 255.468 664.02 255.138L667.19 251.078C667.256 250.967 667.35 250.874 667.462 250.81C667.574 250.745 667.701 250.71 667.83 250.708L671.01 251.098C671.52 251.158 672.11 250.248 672.01 249.558L671.41 245.188C671.378 244.866 671.445 244.542 671.6 244.258L674.18 239.388Z" fill="#9F19AB"/>
<path opacity="0.15" d="M674.15 238.048C674.093 238.023 674.032 238.01 673.97 238.01C673.908 238.01 673.847 238.023 673.79 238.048L670.24 239.408C670.193 239.431 670.142 239.444 670.089 239.446C670.037 239.448 669.985 239.44 669.936 239.421C669.887 239.402 669.843 239.374 669.806 239.337C669.769 239.3 669.739 239.256 669.72 239.208L668.9 237.468L671.24 236.578C671.294 236.55 671.354 236.536 671.415 236.536C671.476 236.536 671.536 236.55 671.59 236.578L674.15 238.048Z" fill="white"/>
<path opacity="0.15" d="M665.31 241.748C665.219 242.063 665.038 242.344 664.79 242.558L661.24 245.318C661.076 245.447 660.943 245.611 660.85 245.798L658.3 244.318C658.398 244.135 658.531 243.972 658.69 243.838L662.24 241.098C662.488 240.888 662.669 240.61 662.76 240.298L665.31 241.748Z" fill="white"/>
<path opacity="0.1" d="M667.98 235.648C667.66 235.438 667.11 235.848 666.9 236.538L665.31 241.748L662.76 240.318L664.35 235.108C664.56 234.428 665.09 234.018 665.41 234.198C665.48 234.198 667.63 235.498 667.96 235.668L667.98 235.648Z" fill="black"/>
<path opacity="0.25" d="M663.42 248.938L660.89 247.488L658.32 245.628C658.03 245.408 658.06 244.808 658.32 244.318L660.87 245.798C660.62 246.278 660.58 246.888 660.87 247.098L663.42 248.938Z" fill="black"/>
<path opacity="0.15" d="M663.02 254.708C662.97 255.088 663.08 255.338 663.26 255.438L660.71 253.958C660.54 253.858 660.44 253.618 660.48 253.248L661.09 248.168C661.116 248.051 661.114 247.929 661.084 247.813C661.055 247.696 660.999 247.589 660.92 247.498L663.44 248.948C663.518 249.039 663.575 249.146 663.606 249.262C663.638 249.378 663.642 249.5 663.62 249.618L663.02 254.708Z" fill="black"/>
<path d="M668.13 235.828L669.72 239.208C669.739 239.256 669.768 239.3 669.806 239.337C669.843 239.374 669.887 239.402 669.936 239.421C669.985 239.44 670.037 239.448 670.089 239.446C670.142 239.444 670.193 239.431 670.24 239.408L673.79 238.048C674.36 237.828 674.58 238.628 674.18 239.388L671.6 244.218C671.444 244.502 671.378 244.826 671.41 245.148L672.01 249.518C672.11 250.208 671.52 251.118 671.01 251.058L667.83 250.668C667.7 250.67 667.574 250.705 667.462 250.77C667.35 250.834 667.256 250.927 667.19 251.038L664.02 255.098C663.51 255.748 662.92 255.518 663.02 254.708L663.62 249.638C663.65 249.515 663.648 249.386 663.615 249.263C663.582 249.141 663.518 249.029 663.43 248.938L660.89 247.078C660.49 246.788 660.71 245.728 661.28 245.298L664.83 242.558C665.078 242.348 665.259 242.07 665.35 241.758L666.94 236.538C667.15 235.718 667.89 235.318 668.13 235.828Z" fill="#9F19AB"/>
<path opacity="0.5" d="M668.13 235.828L669.72 239.208C669.739 239.256 669.768 239.3 669.806 239.337C669.843 239.374 669.887 239.402 669.936 239.421C669.985 239.44 670.037 239.448 670.089 239.446C670.142 239.444 670.193 239.431 670.24 239.408L673.79 238.048C674.36 237.828 674.58 238.628 674.18 239.388L671.6 244.218C671.444 244.502 671.378 244.826 671.41 245.148L672.01 249.518C672.11 250.208 671.52 251.118 671.01 251.058L667.83 250.668C667.7 250.67 667.574 250.705 667.462 250.77C667.35 250.834 667.256 250.927 667.19 251.038L664.02 255.098C663.51 255.748 662.92 255.518 663.02 254.708L663.62 249.638C663.65 249.515 663.648 249.386 663.615 249.263C663.582 249.141 663.518 249.029 663.43 248.938L660.89 247.078C660.49 246.788 660.71 245.728 661.28 245.298L664.83 242.558C665.078 242.348 665.259 242.07 665.35 241.758L666.94 236.538C667.15 235.718 667.89 235.318 668.13 235.828Z" fill="white"/>
<path d="M324.143 124.97L316.143 128.39L314.423 136.92C314.374 137.154 314.261 137.371 314.096 137.544C313.932 137.718 313.722 137.842 313.49 137.904C313.259 137.965 313.015 137.96 312.786 137.891C312.557 137.821 312.352 137.69 312.193 137.51L306.473 130.97L297.833 131.97C297.596 131.997 297.355 131.957 297.139 131.855C296.923 131.754 296.739 131.594 296.608 131.393C296.478 131.193 296.405 130.961 296.399 130.722C296.393 130.483 296.453 130.247 296.573 130.04L301.053 122.57L297.423 114.66C297.324 114.441 297.288 114.199 297.319 113.962C297.35 113.724 297.447 113.499 297.599 113.313C297.75 113.127 297.951 112.987 298.178 112.909C298.405 112.83 298.649 112.817 298.883 112.87L307.363 114.8L313.753 108.91C313.93 108.747 314.149 108.636 314.385 108.591C314.622 108.545 314.866 108.567 315.091 108.653C315.316 108.74 315.512 108.887 315.657 109.079C315.803 109.271 315.891 109.5 315.913 109.74L316.693 118.4L324.273 122.66C324.483 122.779 324.655 122.953 324.77 123.165C324.886 123.376 324.94 123.615 324.926 123.855C324.913 124.096 324.832 124.328 324.694 124.525C324.555 124.722 324.365 124.876 324.143 124.97Z" fill="#E0E0E0"/>
<path d="M280.054 110.18C279.891 110.393 279.659 110.543 279.398 110.603C279.137 110.663 278.863 110.63 278.624 110.51L274.174 108.12L269.714 110.47C269.53 110.567 269.323 110.61 269.116 110.594C268.909 110.578 268.71 110.504 268.544 110.38C268.373 110.257 268.24 110.089 268.161 109.895C268.081 109.7 268.058 109.487 268.094 109.28L268.944 104.28L265.344 100.77C265.193 100.625 265.085 100.44 265.034 100.237C264.983 100.033 264.99 99.8196 265.054 99.62C265.12 99.4215 265.24 99.2453 265.401 99.1111C265.562 98.9769 265.757 98.89 265.964 98.86L270.964 98.14L273.184 93.62C273.277 93.4348 273.42 93.279 273.597 93.1696C273.773 93.0602 273.976 93.0015 274.184 93C274.392 92.9993 274.596 93.057 274.773 93.1666C274.949 93.2762 275.092 93.4333 275.184 93.62L277.414 98.14L282.414 98.86C282.623 98.8866 282.82 98.972 282.982 99.1063C283.144 99.2406 283.264 99.4182 283.329 99.6184C283.394 99.8186 283.401 100.033 283.349 100.237C283.296 100.441 283.187 100.626 283.034 100.77L279.434 104.28L280.284 109.28C280.311 109.438 280.305 109.6 280.265 109.755C280.226 109.91 280.154 110.055 280.054 110.18ZM265.784 99.79C265.755 99.8299 265.731 99.8737 265.714 99.92C265.688 99.9945 265.684 100.075 265.704 100.152C265.723 100.228 265.765 100.297 265.824 100.35L269.694 104.12L268.784 109.44C268.769 109.518 268.776 109.598 268.804 109.673C268.833 109.747 268.881 109.812 268.944 109.86C269.011 109.902 269.089 109.924 269.169 109.924C269.248 109.924 269.326 109.902 269.394 109.86L274.174 107.35L278.954 109.86C279.021 109.902 279.099 109.924 279.179 109.924C279.258 109.924 279.336 109.902 279.404 109.86C279.467 109.812 279.515 109.747 279.543 109.673C279.571 109.598 279.578 109.518 279.564 109.44L278.654 104.12L282.524 100.35C282.579 100.295 282.617 100.225 282.635 100.149C282.652 100.073 282.649 99.9939 282.624 99.92C282.601 99.844 282.557 99.7761 282.497 99.7246C282.436 99.6731 282.362 99.6403 282.284 99.63L276.944 98.85L274.554 94.01C274.52 93.9379 274.466 93.877 274.399 93.8343C274.331 93.7916 274.253 93.7689 274.174 93.7689C274.094 93.7689 274.016 93.7916 273.949 93.8343C273.881 93.877 273.828 93.9379 273.794 94.01L271.404 98.85L266.064 99.63C265.954 99.646 265.853 99.7032 265.784 99.79Z" fill="#E0E0E0"/>
<path d="M453.01 23.7956C445.48 19.4356 435.12 20.0256 423.69 26.6256C400.69 39.9256 382 72.4956 382 99.3856C382 112.916 386.73 122.386 394.37 126.816C396.13 127.816 403.06 131.816 403.05 131.816C402.727 134.859 401.677 137.78 399.987 140.332C398.296 142.884 396.017 144.991 393.34 146.476C392.9 146.726 393.18 147.156 393.56 147.376L404.13 153.486C404.276 153.572 404.441 153.62 404.61 153.626C415.01 153.626 427.07 146.626 430.42 132.086C431.68 131.486 432.95 130.836 434.24 130.086C457.24 116.796 475.93 84.2256 475.93 57.3356C475.93 43.7956 471.2 34.3356 463.57 29.8756C461.79 28.8556 454.76 24.8156 453.01 23.7956Z" fill="#37474F"/>
<path d="M434.24 32.7255C411.24 46.0155 392.55 78.5955 392.55 105.486C392.55 123.726 401.15 134.646 413.86 135.646C413.39 141.446 411.7 147.966 403.86 152.576C403.25 152.946 404.06 153.636 404.58 153.636C414.98 153.636 427.04 146.636 430.39 132.096C431.65 131.496 432.92 130.846 434.21 130.096C457.21 116.806 475.9 84.2355 475.9 57.3455C475.9 30.4555 457.27 19.4355 434.24 32.7255Z" fill="#455A64"/>
<path d="M403.9 152.576C403.52 152.816 403.69 153.166 404 153.406C402.75 152.696 393.71 147.486 393.57 147.406C393.18 147.176 392.9 146.756 393.35 146.496C396.025 145.01 398.302 142.902 399.991 140.351C401.679 137.799 402.728 134.878 403.05 131.836L404.21 132.516L405.26 133.136C407.909 134.591 410.844 135.451 413.86 135.656C413.39 141.446 411.69 147.966 403.9 152.576Z" fill="#263238"/>
<path d="M429.85 109.686C428.73 108.906 428.18 107.486 428.18 105.426C428.2 103.289 428.764 101.193 429.82 99.3355C430.769 97.4758 432.22 95.92 434.01 94.8455C435.71 93.8655 437.107 93.7489 438.2 94.4955C439.3 95.2355 439.84 96.6355 439.84 98.6855C439.811 100.859 439.237 102.991 438.17 104.886C437.238 106.763 435.797 108.34 434.01 109.436C432.35 110.422 430.964 110.506 429.85 109.686ZM428.36 55.3255L439.66 48.7955L437.78 86.9155L430.24 91.2655L428.36 55.3255Z" fill="#FAFAFA"/>
<path d="M516.96 232.894C512.71 232.894 509.54 229.954 507.55 226.204C520.3 210.514 528.93 189.614 528.93 171.344C528.93 157.784 524.19 148.264 516.53 143.864L505.98 137.784C498.46 133.434 488.11 134.034 476.69 140.624C453.69 153.924 435 186.494 435 213.384C435 226.914 439.72 236.384 447.35 240.834L457.88 246.904C465.41 251.294 475.79 250.714 487.24 244.094C490.306 242.308 493.22 240.271 495.95 238.004C503.7 244.124 513.14 237.444 516.88 234.254C517.38 233.824 517.43 232.884 516.96 232.894Z" fill="#E0E0E0"/>
<path d="M468.79 249.084C454.86 249.084 446.2 237.744 446.2 219.474C446.2 192.844 464.76 160.474 487.57 147.284C493.95 143.604 500.05 141.734 505.69 141.734C519.63 141.734 528.28 153.074 528.28 171.344C528.28 188.814 520.15 209.684 507.04 225.794L506.77 226.134L506.97 226.514C509.32 230.944 512.73 233.424 516.6 233.514C516.572 233.6 516.52 233.677 516.45 233.734C513.79 236.014 508.51 239.824 503.04 239.824C500.606 239.834 498.243 239.004 496.35 237.474L495.94 237.144L495.54 237.474C492.837 239.708 489.954 241.715 486.92 243.474C480.54 247.254 474.44 249.084 468.79 249.084Z" fill="#FAFAFA"/>
<path d="M505.69 141.084V142.384C519.23 142.384 527.63 153.484 527.63 171.384C527.63 188.714 519.55 209.384 506.54 225.384L506 226.054L506.4 226.814C508.56 230.894 511.61 233.404 515.1 234.034C512.32 236.244 507.73 239.194 503.04 239.194C500.754 239.204 498.536 238.423 496.76 236.984L495.93 236.324L495.12 236.994C492.448 239.228 489.595 241.235 486.59 242.994C480.32 246.614 474.33 248.454 468.79 248.454C455.26 248.454 446.85 237.364 446.85 219.454C446.85 193.014 465.26 160.884 487.85 147.814C494.13 144.194 500.12 142.354 505.65 142.354V141.054M505.65 141.054C500.09 141.054 493.83 142.864 487.2 146.694C464.2 159.984 445.51 192.564 445.51 219.454C445.51 238.604 454.98 249.704 468.75 249.704C474.32 249.704 480.58 247.894 487.2 244.064C490.266 242.278 493.18 240.241 495.91 237.974C497.915 239.598 500.42 240.478 503 240.464C508.72 240.464 514.2 236.464 516.84 234.224C517.34 233.794 517.39 232.864 516.93 232.864H516.83C512.62 232.864 509.48 229.864 507.51 226.174C520.26 210.484 528.89 189.584 528.89 171.314C528.89 152.164 519.42 141.054 505.65 141.054Z" fill="#9F19AB"/>
<path d="M485.13 199.994C486.337 197.08 487.726 194.244 489.29 191.504C490.387 189.626 491.389 187.694 492.29 185.714C492.894 184.357 493.214 182.89 493.23 181.404C493.23 179.404 492.63 178.174 491.44 177.694C490.25 177.214 488.65 177.564 486.67 178.694C484.695 179.847 482.968 181.38 481.59 183.204C480.051 185.214 478.792 187.425 477.85 189.774L470.45 188.254C472.094 183.911 474.424 179.86 477.35 176.254C480.218 172.72 483.709 169.741 487.65 167.464C492.317 164.798 496.054 163.964 498.86 164.964C501.667 165.964 503.077 168.824 503.09 173.544C503.098 175.675 502.822 177.797 502.27 179.854C501.773 181.716 501.103 183.527 500.27 185.264C499.477 186.884 498.454 188.814 497.2 191.054C495.992 193.124 494.897 195.257 493.92 197.444C493.249 199.025 492.909 200.727 492.92 202.444L483.74 207.744C483.707 205.096 484.179 202.466 485.13 199.994ZM484.13 225.714C483.01 224.921 482.45 223.501 482.45 221.454C482.472 219.314 483.04 217.214 484.1 215.354C485.049 213.497 486.501 211.945 488.29 210.874C489.99 209.881 491.387 209.761 492.48 210.514C493.58 211.264 494.12 212.664 494.12 214.714C494.092 216.885 493.518 219.014 492.45 220.904C491.532 222.778 490.104 224.356 488.33 225.454C486.664 226.414 485.274 226.501 484.16 225.714H484.13Z" fill="#455A64"/>
<path d="M126.15 160.29L80.1499 186.93L98.4199 217.99C98.7695 218.829 99.3841 219.532 100.17 219.99C102.35 221.22 115.26 228.7 115.97 229.11C116.523 229.431 117.142 229.623 117.78 229.67C118.419 229.717 119.059 229.618 119.654 229.381C120.248 229.144 120.781 228.775 121.211 228.302C121.642 227.829 121.96 227.264 122.14 226.65L141.98 169.47L126.15 160.29Z" fill="#9F19AB"/>
<path opacity="0.2" d="M126.15 160.29L80.1499 186.93L98.4199 217.99C98.7695 218.829 99.3841 219.532 100.17 219.99C102.35 221.22 115.26 228.7 115.97 229.11C116.523 229.431 117.142 229.623 117.78 229.67C118.419 229.717 119.059 229.618 119.654 229.381C120.248 229.144 120.781 228.775 121.211 228.302C121.642 227.829 121.96 227.264 122.14 226.65L141.98 169.47L126.15 160.29Z" fill="black"/>
<path d="M95.98 196.11L114.26 227.11C114.611 227.895 115.194 228.554 115.931 228.998C116.668 229.442 117.523 229.65 118.381 229.593C119.239 229.537 120.06 229.218 120.732 228.681C121.404 228.144 121.895 227.414 122.14 226.59L141.98 169.41L95.98 196.11Z" fill="#9F19AB"/>
<path d="M177.48 0.969653L4 101.11C2.83701 101.864 1.86853 102.881 1.17343 104.08C0.478333 105.28 0.0762744 106.626 0 108.01V228.41C0.0728746 229.789 0.473812 231.131 1.16951 232.324C1.86521 233.517 2.83558 234.527 4 235.27L18.26 243.27C19.5014 243.892 20.8711 244.217 22.26 244.217C23.6489 244.217 25.0186 243.892 26.26 243.27L199.75 143.11C200.913 142.356 201.881 141.338 202.577 140.139C203.272 138.94 203.674 137.594 203.75 136.21V15.7897C203.676 14.4106 203.275 13.069 202.579 11.876C201.884 10.683 200.914 9.67301 199.75 8.92965L185.48 0.929653C184.236 0.311505 182.864 -0.00683457 181.475 0.000111267C180.086 0.0070571 178.718 0.339096 177.48 0.969653Z" fill="#9F19AB"/>
<path opacity="0.3" d="M203.68 15.1097C203.37 13.1097 201.73 12.3797 199.74 13.5197L26.28 113.64C25.103 114.384 24.1357 115.417 23.47 116.64L1.27002 103.97C1.9332 102.813 2.87509 101.84 4.01003 101.14L177.49 0.969669C178.731 0.345325 180.101 0.0201416 181.49 0.0201416C182.879 0.0201416 184.249 0.345325 185.49 0.969669L199.74 8.96967C200.798 9.65136 201.697 10.5523 202.377 11.6116C203.057 12.6709 203.501 13.8638 203.68 15.1097Z" fill="white"/>
<path d="M22.29 241.39V121C22.3671 119.616 22.7695 118.27 23.4645 117.071C24.1595 115.872 25.1276 114.854 26.29 114.1L199.75 13.9496C201.95 12.6796 203.75 13.7096 203.75 16.2496V136.64C203.674 138.023 203.272 139.37 202.577 140.569C201.882 141.768 200.913 142.786 199.75 143.54L26.28 243.69C24.08 244.96 22.29 243.93 22.29 241.39Z" fill="#9F19AB"/>
<path opacity="0.2" d="M26.2798 243.23C25.033 243.834 23.6654 244.148 22.2798 244.148C20.8942 244.148 19.5266 243.834 18.2798 243.23L4.02979 235.23C2.86576 234.491 1.8953 233.485 1.19944 232.295C0.503583 231.105 0.102536 229.766 0.0297852 228.39V108.02C0.0839941 106.574 0.522362 105.169 1.29978 103.95L23.4798 116.62C22.7497 117.797 22.3427 119.145 22.2998 120.53V240.92C22.2898 243.25 23.9298 244.59 26.2798 243.23Z" fill="black"/>
<path d="M70.9702 145.01L69.2302 144.01C68.5686 143.629 67.8186 143.428 67.0552 143.428C66.2918 143.428 65.5418 143.629 64.8802 144.01L54.3202 150.11V135.66L73.8802 124.36C74.7963 123.819 75.5552 123.048 76.0814 122.124C76.6077 121.199 76.8831 120.153 76.8802 119.09V110.98C76.8831 109.916 76.6077 108.87 76.0814 107.945C75.5552 107.021 74.7963 106.25 73.8802 105.71C72.9547 105.174 71.9044 104.892 70.8352 104.892C69.766 104.892 68.7157 105.174 67.7902 105.71L40.6602 121.38C39.0516 122.305 37.7156 123.638 36.7868 125.244C35.858 126.851 35.3694 128.674 35.3702 130.53V205.72C35.3646 206.785 35.6387 207.834 36.1651 208.76C36.6916 209.687 37.4519 210.459 38.3702 211C39.2973 211.53 40.347 211.809 41.4152 211.809C42.4834 211.809 43.5331 211.53 44.4602 211L51.2202 207.09C52.1463 206.556 52.9157 205.788 53.4511 204.863C53.9865 203.938 54.269 202.888 54.2702 201.82V172.33L70.9202 162.71C71.5823 162.329 72.1318 161.779 72.513 161.117C72.8941 160.455 73.0932 159.704 73.0902 158.94V148.78C73.0973 148.021 72.9053 147.273 72.5333 146.612C72.1613 145.95 71.6223 145.398 70.9702 145.01Z" fill="#E0E0E0"/>
<path opacity="0.1" d="M45.0901 210.65L44.5101 210.99C43.584 211.522 42.5343 211.802 41.4661 211.801C40.3979 211.8 39.3485 211.519 38.4231 210.986C37.4977 210.452 36.7286 209.685 36.1928 208.761C35.6571 207.837 35.3734 206.788 35.3701 205.72V130.53C35.3727 128.784 35.8091 127.065 36.6401 125.53L42.7301 129.04C41.8956 130.574 41.4589 132.293 41.4601 134.04V208.53C41.4619 208.954 41.5744 209.371 41.7865 209.739C41.9986 210.106 42.303 210.412 42.6696 210.627C43.0362 210.841 43.4523 210.955 43.8768 210.959C44.3013 210.963 44.7195 210.857 45.0901 210.65Z" fill="black"/>
<path d="M54.32 135.66V157.11L70.94 147.52C71.1626 147.389 71.416 147.319 71.6742 147.318C71.9324 147.317 72.1863 147.385 72.41 147.514C72.6336 147.643 72.819 147.829 72.9473 148.053C73.0755 148.277 73.142 148.531 73.14 148.79V158.94C73.1395 159.699 72.9398 160.445 72.5608 161.103C72.1817 161.761 71.6367 162.308 70.98 162.69L54.32 172.31V201.8C54.3229 202.863 54.0475 203.909 53.5213 204.834C52.995 205.758 52.2362 206.529 51.32 207.07L45.16 210.62C44.7893 210.834 44.3688 210.946 43.9408 210.947C43.5127 210.947 43.0922 210.834 42.7213 210.62C42.3505 210.407 42.0424 210.099 41.8281 209.729C41.6137 209.358 41.5005 208.938 41.5 208.51V134.05C41.5004 132.193 41.9895 130.369 42.9181 128.761C43.8467 127.153 45.182 125.818 46.79 124.89L73.6 109.37C73.9348 109.176 74.3146 109.075 74.7012 109.075C75.0878 109.075 75.4675 109.177 75.8021 109.371C76.1366 109.565 76.4143 109.843 76.607 110.178C76.7998 110.513 76.9008 110.893 76.9 111.28V119.11C76.9026 120.169 76.6269 121.211 76.1004 122.131C75.5739 123.05 74.8152 123.816 73.9 124.35L54.32 135.66Z" fill="#FAFAFA"/>
<path d="M112.37 90.2296C112.062 89.1856 111.521 88.2251 110.788 87.4203C110.055 86.6155 109.149 85.9874 108.139 85.5831C107.128 85.1788 106.039 85.009 104.953 85.0863C103.867 85.1637 102.813 85.4862 101.87 86.0296L95.1402 89.9196C94.2732 90.4192 93.5202 91.0945 92.9296 91.9022C92.3389 92.7098 91.9235 93.632 91.7102 94.6096L71.6502 185.95C71.493 186.72 71.5811 187.52 71.9022 188.237C72.2233 188.955 72.7611 189.554 73.4402 189.95L75.2802 191.01C75.8502 191.339 76.4969 191.512 77.1552 191.512C77.8134 191.512 78.4601 191.339 79.0302 191.01L87.1402 186.33C88.2688 185.638 89.1882 184.653 89.8002 183.48C90.4842 182.295 90.9865 181.014 91.2902 179.68L94.6002 163.11L111 153.64L112.7 160.41C112.941 161.292 113.491 162.059 114.25 162.57C114.93 162.97 119.66 165.68 120.34 166.09C120.779 166.278 121.261 166.343 121.735 166.28C122.208 166.217 122.656 166.027 123.03 165.73L132.93 160.01L112.37 90.2296ZM99.0402 140.11L102.6 121.94L102.81 120.94L106.53 135.71L99.0402 140.11Z" fill="#E0E0E0"/>
<path opacity="0.1" d="M120.21 166C119.32 165.47 114.86 162.92 114.21 162.53C113.451 162.019 112.901 161.252 112.66 160.37L110.96 153.6L115.5 150.98L118.75 163.88C118.99 164.728 119.503 165.473 120.21 166Z" fill="black"/>
<path opacity="0.1" d="M112.6 139.27L106.51 135.75L102.79 120.98C102.79 120.98 102.79 120.98 102.79 120.92C103.11 119.48 103.43 117.84 103.79 116.02C104.22 113.75 104.62 111.33 105 108.74C105.433 110.82 105.863 112.736 106.29 114.49C106.72 116.24 107.12 117.74 107.5 119L112.6 139.27Z" fill="black"/>
<path opacity="0.1" d="M77.8502 188.98C77.7959 189.22 77.8049 189.47 77.8764 189.705C77.9478 189.941 78.0792 190.153 78.2577 190.323C78.4361 190.492 78.6555 190.612 78.8944 190.671C79.1332 190.73 79.3834 190.726 79.6202 190.66V190.74L79.0502 191.06C78.4801 191.389 77.8334 191.562 77.1752 191.562C76.5169 191.562 75.8703 191.389 75.3002 191.06L73.4602 190C72.7811 189.604 72.2433 189.005 71.9222 188.287C71.6011 187.57 71.513 186.77 71.6702 186L91.7302 94.6597C91.9143 93.8147 92.2533 93.0111 92.7302 92.2897L98.8202 95.8097C98.3376 96.5244 97.9981 97.3258 97.8202 98.1697L77.8502 188.98Z" fill="black"/>
<path d="M132.88 159.97L122.98 165.69C122.606 165.987 122.158 166.177 121.685 166.24C121.211 166.303 120.729 166.238 120.29 166.05C119.528 165.542 118.977 164.774 118.74 163.89L115.49 150.98L94.5402 163.11L91.2902 179.77C90.9804 181.105 90.4785 182.388 89.8002 183.58C89.1849 184.751 88.2618 185.733 87.1302 186.42L79.9602 190.57C79.7197 190.708 79.4441 190.774 79.1669 190.759C78.8897 190.743 78.623 190.648 78.3993 190.483C78.1756 190.319 78.0046 190.093 77.9071 189.833C77.8095 189.573 77.7898 189.291 77.8502 189.02L97.7902 98.1096C98.0053 97.1327 98.4213 96.2112 99.0118 95.4038C99.6023 94.5964 100.354 93.9207 101.22 93.4196L107.69 89.6796C108.148 89.4138 108.659 89.2546 109.187 89.2138C109.714 89.1729 110.244 89.2515 110.737 89.4437C111.23 89.6359 111.673 89.9367 112.034 90.3238C112.395 90.7109 112.663 91.1743 112.82 91.6796L132.88 159.97ZM112.6 139.27L107.49 118.99C107.12 117.74 106.71 116.23 106.28 114.48C105.85 112.73 105.43 110.81 105 108.73C104.62 111.316 104.217 113.743 103.79 116.01C103.364 118.276 102.967 120.256 102.6 121.95L97.5302 147.95L112.6 139.27Z" fill="#FAFAFA"/>
<path d="M180.29 125.03C182.037 122.027 183.571 118.906 184.88 115.69C186.233 112.374 187.369 108.973 188.28 105.51C189.208 101.997 189.917 98.4303 190.4 94.8297C190.891 91.207 191.138 87.5554 191.14 83.8997C191.237 78.5372 190.542 73.1898 189.08 68.0297C188.04 64.1415 186.046 60.574 183.28 57.6497C182.418 56.8025 181.45 56.0698 180.4 55.4697L174.4 51.9997C172.501 50.8985 170.364 50.2708 168.17 50.1697C164.65 49.9697 160.75 51.1063 156.47 53.5797C151.991 56.21 148.021 59.6243 144.75 63.6597C141.134 68.0466 138.089 72.8752 135.69 78.0297C130.536 89.1215 127.848 101.199 127.81 113.43C127.707 118.812 128.401 124.18 129.87 129.36C130.908 133.259 132.909 136.836 135.69 139.76C136.558 140.62 137.537 141.36 138.6 141.96C139.6 142.52 143.55 144.82 144.53 145.39C146.454 146.503 148.62 147.131 150.84 147.22C154.36 147.386 158.267 146.236 162.56 143.77C164.387 142.715 166.123 141.511 167.75 140.17L170.23 143.02C170.568 143.366 170.952 143.666 171.37 143.91C172.07 144.32 177.05 147.18 177.43 147.41C178.098 147.82 178.879 148.009 179.66 147.95C181.108 147.777 182.499 147.281 183.73 146.5L194.24 140.44L180.29 125.03ZM170.91 99.9297C170.273 103.458 169.251 106.905 167.86 110.21C166.642 113.138 165.008 115.876 163.01 118.34C161.186 120.588 158.97 122.488 156.47 123.95C154.639 125.136 152.529 125.826 150.35 125.95C149.254 124.173 148.473 122.222 148.04 120.18C147.271 116.646 146.916 113.035 146.98 109.42C146.962 105.415 147.316 101.418 148.04 97.4797C148.661 93.9535 149.667 90.5062 151.04 87.1997C152.271 84.2584 153.914 81.5074 155.92 79.0297C157.757 76.7513 159.994 74.8265 162.52 73.3497C164.32 72.1992 166.388 71.5375 168.52 71.4297C169.628 73.2212 170.42 75.1898 170.86 77.2497C171.623 80.7673 171.978 84.3608 171.92 87.9597C171.951 91.9722 171.613 95.979 170.91 99.9297Z" fill="#E0E0E0"/>
<path opacity="0.1" d="M144.28 145.24C143.01 144.51 139.52 142.48 138.6 141.96C137.537 141.359 136.558 140.62 135.69 139.76C132.909 136.836 130.908 133.259 129.87 129.36C128.401 124.18 127.707 118.812 127.81 113.43C127.81 107.272 128.501 101.133 129.87 95.1296C131.09 89.662 132.859 84.3317 135.15 79.2196L141.24 82.7396C136.436 93.5067 133.936 105.159 133.9 116.95C133.796 122.329 134.49 127.694 135.96 132.87C136.996 136.773 138.997 140.353 141.78 143.28C142.539 144.023 143.377 144.681 144.28 145.24Z" fill="black"/>
<path opacity="0.1" d="M173.95 73.9697C173.362 73.2324 172.627 72.6251 171.792 72.1862C170.958 71.7473 170.041 71.4863 169.1 71.4197C168.93 71.4197 168.75 71.4197 168.57 71.4197C169.676 73.2084 170.468 75.1735 170.91 77.2297C171.672 80.7473 172.028 84.3409 171.97 87.9397C171.986 91.9637 171.631 95.9807 170.91 99.9397C170.273 103.468 169.25 106.915 167.86 110.22C166.641 113.148 165.008 115.886 163.01 118.35C161.185 120.598 158.97 122.498 156.47 123.96C154.638 125.146 152.529 125.836 150.35 125.96C150.568 126.311 150.812 126.645 151.08 126.96C151.667 127.703 152.406 128.311 153.248 128.744C154.09 129.177 155.015 129.425 155.96 129.47C158.308 129.458 160.601 128.763 162.56 127.47C165.06 126.008 167.275 124.108 169.1 121.86C171.094 119.393 172.727 116.656 173.95 113.73C175.325 110.42 176.331 106.969 176.95 103.44C177.671 99.4808 178.026 95.4638 178.01 91.4397C178.068 87.8409 177.712 84.2473 176.95 80.7297C176.484 78.2754 175.457 75.9619 173.95 73.9697Z" fill="black"/>
<path opacity="0.1" d="M169.48 138.67C168.91 139.19 168.34 139.67 167.75 140.17L170.23 143.02C170.568 143.366 170.952 143.666 171.37 143.91C172.05 144.31 176.74 147 177.37 147.38C176.982 147.142 176.626 146.856 176.31 146.53L169.48 138.67Z" fill="black"/>
<path d="M194.24 140.44L183.73 146.51C182.496 147.283 181.106 147.775 179.66 147.95C179.033 147.98 178.408 147.87 177.829 147.626C177.251 147.381 176.735 147.01 176.32 146.54L169.47 138.67C167.363 140.624 165.041 142.335 162.55 143.77C158.27 146.243 154.363 147.393 150.83 147.22C147.441 147.086 144.227 145.679 141.83 143.28C139.047 140.351 137.043 136.772 136 132.87C134.555 127.69 133.882 122.326 134 116.95C134.025 104.717 136.714 92.6373 141.88 81.5496C144.26 76.3982 147.284 71.5696 150.88 67.1796C154.157 63.1524 158.125 59.7423 162.6 57.1096C166.893 54.6296 170.793 53.493 174.3 53.6996C177.695 53.8598 180.906 55.2871 183.3 57.6996C186.075 60.6229 188.072 64.1951 189.11 68.0896C190.573 73.2462 191.267 78.5904 191.17 83.9496C191.168 87.6054 190.921 91.257 190.43 94.8796C189.947 98.4837 189.239 102.054 188.31 105.57C187.398 109.03 186.263 112.427 184.91 115.74C183.602 118.957 182.068 122.078 180.32 125.08L194.24 140.44ZM146.98 109.44C146.915 113.059 147.271 116.673 148.04 120.21C148.503 122.668 149.53 124.986 151.04 126.98C151.63 127.719 152.37 128.325 153.211 128.758C154.052 129.191 154.976 129.44 155.92 129.49C158.264 129.475 160.553 128.78 162.51 127.49C165.014 126.034 167.23 124.133 169.05 121.88C171.051 119.416 172.687 116.678 173.91 113.75C175.283 110.443 176.289 106.996 176.91 103.47C177.628 99.5103 177.979 95.4934 177.96 91.4696C178.021 87.8679 177.669 84.271 176.91 80.7496C176.441 78.2931 175.415 75.977 173.91 73.9796C173.321 73.2411 172.585 72.6331 171.748 72.1942C170.911 71.7552 169.993 71.4949 169.05 71.4296C166.76 71.4276 164.52 72.0912 162.6 73.3396C160.073 74.8073 157.839 76.7296 156.01 79.0096C154.006 81.4889 152.363 84.2395 151.13 87.1796C149.751 90.4876 148.745 93.9389 148.13 97.4696C147.376 101.402 146.991 105.396 146.98 109.4V109.44Z" fill="#FAFAFA"/>
</svg>
