<svg width="13" height="19" viewBox="0 0 13 19" fill="none" xmlns="http://www.w3.org/2000/svg">
<path d="M10.125 0.5H2.25C1.00723 0.5 0 1.50723 0 2.75V16.25C0 17.4928 1.00723 18.5 2.25 18.5H10.125C11.3678 18.5 12.375 17.4928 12.375 16.25V2.75C12.375 1.50723 11.366 0.5 10.125 0.5ZM10.6875 16.25C10.6875 16.5601 10.4351 16.8125 10.125 16.8125H2.25C1.93992 16.8125 1.6875 16.5594 1.6875 16.25V2.75C1.6875 2.43985 1.93985 2.1875 2.25 2.1875H10.125C10.4344 2.1875 10.6875 2.43992 10.6875 2.75V16.25ZM7.3125 14.5625H5.0625C4.75186 14.5625 4.5 14.8144 4.5 15.125C4.5 15.4356 4.75186 15.6875 5.0625 15.6875H7.3125C7.62321 15.6875 7.875 15.4356 7.875 15.125C7.875 14.8144 7.62187 14.5625 7.3125 14.5625Z" fill="#929DAC"/>
</svg>
