<svg width="19" height="18" viewBox="0 0 19 18" fill="none" xmlns="http://www.w3.org/2000/svg">
<path d="M16.4852 10.1285C16.0359 9.99668 15.569 10.2549 15.4393 10.7019C14.6781 13.3559 12.2348 15.1875 9.46797 15.1875C7.12902 15.1875 5.01016 13.8417 3.96602 11.8125H7.4957C7.96152 11.8125 8.33945 11.4346 8.33945 10.9688C8.33945 10.5029 7.99492 10.125 7.52734 10.125H1.90234C1.43652 10.125 1.05859 10.5029 1.05859 10.9688V16.5938C1.05859 17.0596 1.43652 17.4375 1.90234 17.4375C2.36816 17.4375 2.74609 17.0596 2.74609 16.5938V13.0043C4.14531 15.3422 6.69063 16.875 9.46797 16.875C12.9484 16.875 16.0563 14.5438 17.0301 11.2043C17.1918 10.7262 16.9316 10.2902 16.4852 10.1285ZM17.0934 0.5625C16.6293 0.5625 16.2496 0.94043 16.2496 1.40625V4.9957C14.8539 2.65605 12.3051 1.125 9.49961 1.125C6.01914 1.125 2.90887 3.45621 1.93785 6.7957C1.80707 7.24219 2.06406 7.70977 2.51125 7.83984C2.96266 7.97277 3.42848 7.7124 3.55715 7.26645C4.32109 4.64414 6.76445 2.8125 9.49961 2.8125C11.8386 2.8125 13.9574 4.15828 15.0016 6.1875H11.4684C11.0043 6.1875 10.6246 6.56719 10.6246 7.03125C10.6246 7.49531 11.0043 7.875 11.4684 7.875H17.0934C17.5592 7.875 17.9371 7.49707 17.9371 7.03125V1.40625C17.9371 0.94043 17.5609 0.5625 17.0934 0.5625Z" fill="#B42C9A"/>
</svg>
