<svg width="218" height="218" viewBox="0 0 218 218" fill="none" xmlns="http://www.w3.org/2000/svg">
<path d="M163.5 163.5C193.6 133.4 193.6 84.5995 163.5 54.5C133.4 24.4005 84.5995 24.4005 54.5 54.5C24.4005 84.5995 24.4005 133.4 54.5 163.5C84.5995 193.6 133.4 193.6 163.5 163.5Z" fill="#E8E8E8"/>
<path d="M184.442 115.775H179.024C179.531 113.111 179.788 110.406 179.789 107.694C179.789 87.3695 165.798 70.8939 148.537 70.8939C145.519 70.8967 142.522 71.4075 139.673 72.405C134.512 60.4554 123.975 52.264 111.798 52.264C98.988 52.264 87.9846 61.343 83.1578 74.3318C79.1233 72.0877 74.5851 70.9048 69.9685 70.8939C52.7104 70.8939 38.7166 87.3695 38.7166 107.694C38.7229 110.406 38.9841 113.112 39.4966 115.775H34.9046C28.1999 115.775 22.7129 122.238 22.7129 130.133C22.7129 138.029 28.1999 144.491 34.9046 144.491H184.442C191.147 144.491 196.634 138.031 196.634 130.133C196.634 122.235 191.147 115.775 184.442 115.775Z" fill="url(#paint0_linear_903_3966)"/>
<path d="M142.396 128.15L116.658 89.5409C116.153 88.7849 115.47 88.165 114.669 87.7363C113.868 87.3076 112.973 87.0833 112.064 87.0833C111.156 87.0833 110.261 87.3076 109.46 87.7363C108.658 88.165 107.975 88.7849 107.471 89.5409L81.7331 128.15C81.1792 128.982 80.8612 129.948 80.8131 130.946C80.7649 131.943 80.9884 132.936 81.4597 133.816C81.9309 134.697 82.6324 135.434 83.4892 135.947C84.346 136.461 85.3262 136.732 86.3252 136.733H99.0743V163.302C99.0795 164.269 99.4658 165.194 100.149 165.877C100.833 166.56 101.759 166.946 102.725 166.95H121.411C122.378 166.946 123.304 166.56 123.988 165.876C124.671 165.193 125.057 164.267 125.062 163.3V136.733H137.794C138.794 136.734 139.775 136.464 140.633 135.951C141.491 135.438 142.194 134.702 142.667 133.821C143.139 132.94 143.364 131.947 143.316 130.948C143.268 129.949 142.95 128.982 142.396 128.15Z" fill="url(#paint1_linear_903_3966)"/>
<path d="M139.974 128.15L114.236 89.5409C113.732 88.7849 113.049 88.165 112.248 87.7363C111.446 87.3076 110.552 87.0833 109.643 87.0833C108.734 87.0833 107.84 87.3076 107.038 87.7363C106.237 88.165 105.554 88.7849 105.05 89.5409L79.3093 128.15C78.7552 128.982 78.4373 129.948 78.3892 130.946C78.3411 131.944 78.5648 132.937 79.0364 133.817C79.508 134.698 80.2098 135.435 81.0669 135.948C81.9241 136.462 82.9046 136.733 83.9038 136.733H96.6529V163.302C96.6581 164.269 97.0444 165.194 97.728 165.877C98.4116 166.56 99.3372 166.946 100.304 166.95H118.982C119.949 166.946 120.874 166.56 121.558 165.877C122.242 165.194 122.628 164.269 122.633 163.302V136.733H135.382C136.381 136.732 137.361 136.461 138.218 135.947C139.075 135.434 139.776 134.697 140.248 133.816C140.719 132.936 140.942 131.943 140.894 130.946C140.846 129.948 140.528 128.982 139.974 128.15Z" fill="#014363"/>
<defs>
<linearGradient id="paint0_linear_903_3966" x1="164.999" y1="86" x2="30.499" y2="135" gradientUnits="userSpaceOnUse">
<stop stop-color="#9F19AB"/>
<stop offset="1" stop-color="#209099"/>
</linearGradient>
<linearGradient id="paint1_linear_903_3966" x1="112.064" y1="87.0833" x2="112.064" y2="166.95" gradientUnits="userSpaceOnUse">
<stop stop-color="#209099"/>
<stop offset="1" stop-color="#9F19AB"/>
</linearGradient>
</defs>
</svg>
