<svg width="18" height="19" viewBox="0 0 18 19" fill="none" xmlns="http://www.w3.org/2000/svg">
<g clip-path="url(#clip0_1369_131)">
<path d="M11.0625 11.1875H7.6875C4.27031 11.1875 1.5 13.9578 1.5 17.375C1.5 17.9962 2.00379 18.5 2.625 18.5H16.125C16.7462 18.5 17.25 17.9962 17.25 17.375C17.25 13.9578 14.4797 11.1875 11.0625 11.1875ZM3.2223 16.8125C3.50004 14.5941 5.39531 12.875 7.6875 12.875H11.0625C13.3533 12.875 15.2496 14.5959 15.5273 16.8125H3.2223ZM9.375 9.5C11.8602 9.5 13.875 7.4852 13.875 5C13.875 2.5148 11.8602 0.5 9.375 0.5C6.8898 0.5 4.875 2.5148 4.875 5C4.875 7.48555 6.88945 9.5 9.375 9.5ZM9.375 2.1875C10.9257 2.1875 12.1875 3.44926 12.1875 5C12.1875 6.55074 10.9257 7.8125 9.375 7.8125C7.82426 7.8125 6.5625 6.55039 6.5625 5C6.5625 3.44926 7.82461 2.1875 9.375 2.1875Z" fill="#929DAC"/>
</g>
<defs>
<clipPath id="clip0_1369_131">
<rect width="18" height="18" fill="white" transform="translate(0 0.5)"/>
</clipPath>
</defs>
</svg>
